<svg width="32" height="32" viewBox="0 0 32 32" fill="none" xmlns="http://www.w3.org/2000/svg">
<rect x="17.4668" y="21.7792" width="2.07792" height="2.07792" fill="white"/>
<rect x="5" y="21.7792" width="2.07792" height="2.07792" fill="black"/>
<rect x="19.5449" y="21.7792" width="2.07792" height="2.07792" fill="white"/>
<rect x="7.07812" y="21.7792" width="2.07792" height="2.07792" fill="#D9D9D9"/>
<rect x="21.623" y="21.7792" width="2.07792" height="2.07792" fill="#D9D9D9"/>
<rect x="9.1543" y="21.7792" width="2.07792" height="2.07792" fill="#D9D9D9"/>
<rect x="23.7012" y="21.7792" width="2.07792" height="2.07792" fill="#D9D9D9"/>
<rect x="11.2344" y="21.7792" width="2.07792" height="2.07792" fill="white"/>
<rect x="25.7793" y="21.7792" width="2.07792" height="2.07792" fill="black"/>
<rect x="13.3125" y="21.7792" width="2.07792" height="2.07792" fill="white"/>
<rect x="15.3906" y="21.7792" width="2.07792" height="2.07792" fill="white"/>
<rect x="17.4668" y="25.9351" width="2.07792" height="2.07792" fill="white"/>
<rect x="19.5449" y="25.9351" width="2.07792" height="2.07792" fill="white"/>
<rect x="7.07812" y="25.9351" width="2.07792" height="2.07792" fill="black"/>
<rect x="21.623" y="25.9351" width="2.07792" height="2.07792" fill="black"/>
<rect x="9.1543" y="25.9351" width="2.07792" height="2.07792" fill="black"/>
<rect x="23.7012" y="25.9351" width="2.07792" height="2.07792" fill="black"/>
<rect x="11.2344" y="25.9351" width="2.07792" height="2.07792" fill="white"/>
<rect x="13.3125" y="25.9351" width="2.07792" height="2.07792" fill="white"/>
<rect x="15.3906" y="25.9351" width="2.07792" height="2.07792" fill="white"/>
<rect x="17.4668" y="17.6234" width="2.07792" height="2.07792" fill="white"/>
<rect x="5" y="17.6234" width="2.07792" height="2.07792" fill="black"/>
<rect x="19.5449" y="17.6234" width="2.07792" height="2.07792" fill="#D9D9D9"/>
<rect x="7.07812" y="17.6234" width="2.07792" height="2.07792" fill="#D9D9D9"/>
<rect x="21.623" y="17.6234" width="2.07792" height="2.07792" fill="white"/>
<rect x="21.623" y="19.7013" width="2.07792" height="2.07792" fill="#D9D9D9"/>
<rect x="9.1543" y="17.6234" width="2.07792" height="2.07792" fill="white"/>
<rect x="23.7012" y="17.6234" width="2.07792" height="2.07792" fill="#D9D9D9"/>
<rect x="11.2344" y="17.6234" width="2.07792" height="2.07792" fill="#D9D9D9"/>
<rect x="25.7793" y="17.6234" width="2.07792" height="2.07792" fill="black"/>
<rect x="13.3125" y="17.6234" width="2.07792" height="2.07792" fill="white"/>
<rect x="15.3906" y="17.6234" width="2.07792" height="2.07792" fill="white"/>
<rect x="17.4668" y="13.4675" width="2.07792" height="2.07792" fill="#D9D9D9"/>
<rect x="5" y="13.4675" width="2.07792" height="2.07792" fill="black"/>
<rect x="19.5449" y="13.4675" width="2.07792" height="2.07792" fill="#D9D9D9"/>
<rect x="7.07812" y="13.4675" width="2.07792" height="2.07792" fill="#D9D9D9"/>
<rect x="21.623" y="13.4675" width="2.07792" height="2.07792" fill="white"/>
<rect x="9.1543" y="13.4675" width="2.07792" height="2.07792" fill="white"/>
<rect x="23.7012" y="13.4675" width="2.07792" height="2.07792" fill="#D9D9D9"/>
<rect x="11.2344" y="13.4675" width="2.07792" height="2.07792" fill="#D9D9D9"/>
<rect x="25.7793" y="13.4675" width="2.07792" height="2.07792" fill="black"/>
<rect x="13.3125" y="13.4675" width="2.07792" height="2.07792" fill="#D9D9D9"/>
<rect x="15.3906" y="13.4675" width="2.07792" height="2.07792" fill="#D9D9D9"/>
<rect x="17.4668" y="9.31165" width="2.07792" height="2.07792" fill="white"/>
<rect x="19.5449" y="9.31165" width="2.07792" height="2.07792" fill="white"/>
<rect x="7.07812" y="9.31165" width="2.07792" height="2.07792" fill="black"/>
<rect x="21.623" y="9.31165" width="2.07792" height="2.07792" fill="white"/>
<rect x="9.1543" y="9.31165" width="2.07792" height="2.07792" fill="white"/>
<rect x="23.7012" y="9.31165" width="2.07792" height="2.07792" fill="black"/>
<rect x="11.2344" y="9.31165" width="2.07792" height="2.07792" fill="white"/>
<rect x="13.3125" y="9.31165" width="2.07792" height="2.07792" fill="white"/>
<rect x="15.3906" y="9.31165" width="2.07792" height="2.07792" fill="black"/>
<rect x="17.4668" y="19.7013" width="2.07792" height="2.07792" fill="white"/>
<rect x="5" y="19.7013" width="2.07792" height="2.07792" fill="black"/>
<rect x="19.5449" y="19.7013" width="2.07792" height="2.07792" fill="#D9D9D9"/>
<rect x="7.07812" y="19.7013" width="2.07792" height="2.07792" fill="white"/>
<rect x="9.1543" y="19.7013" width="2.07792" height="2.07792" fill="#D9D9D9"/>
<rect x="23.7012" y="19.7013" width="2.07792" height="2.07792" fill="white"/>
<rect x="11.2344" y="19.7013" width="2.07792" height="2.07792" fill="#D9D9D9"/>
<rect x="25.7793" y="19.7013" width="2.07792" height="2.07792" fill="black"/>
<rect x="13.3125" y="19.7013" width="2.07792" height="2.07792" fill="white"/>
<rect x="15.3906" y="19.7013" width="2.07792" height="2.07792" fill="white"/>
<rect x="17.4668" y="23.8571" width="2.07792" height="2.07792" fill="white"/>
<rect x="19.5449" y="23.8571" width="2.07792" height="2.07792" fill="white"/>
<rect x="7.07812" y="23.8571" width="2.07792" height="2.07792" fill="black"/>
<rect x="21.623" y="23.8571" width="2.07792" height="2.07792" fill="#D9D9D9"/>
<rect x="9.1543" y="23.8571" width="2.07792" height="2.07792" fill="#D9D9D9"/>
<rect x="23.7012" y="23.8571" width="2.07792" height="2.07792" fill="black"/>
<rect x="11.2344" y="23.8571" width="2.07792" height="2.07792" fill="white"/>
<rect x="13.3125" y="23.8571" width="2.07792" height="2.07792" fill="white"/>
<rect x="15.3906" y="23.8571" width="2.07792" height="2.07792" fill="white"/>
<rect x="17.4668" y="15.5455" width="2.07792" height="2.07792" fill="#D9D9D9"/>
<rect x="5" y="15.5455" width="2.07792" height="2.07792" fill="black"/>
<rect x="19.5449" y="15.5455" width="2.07792" height="2.07792" fill="#D9D9D9"/>
<rect x="7.07812" y="15.5455" width="2.07792" height="2.07792" fill="white"/>
<rect x="21.623" y="15.5455" width="2.07792" height="2.07792" fill="#D9D9D9"/>
<rect x="9.1543" y="15.5455" width="2.07792" height="2.07792" fill="#D9D9D9"/>
<rect x="23.7012" y="15.5455" width="2.07792" height="2.07792" fill="white"/>
<rect x="11.2344" y="15.5455" width="2.07792" height="2.07792" fill="#D9D9D9"/>
<rect x="25.7793" y="15.5455" width="2.07792" height="2.07792" fill="black"/>
<rect x="13.3125" y="15.5455" width="2.07792" height="2.07792" fill="#D9D9D9"/>
<rect x="15.3906" y="15.5455" width="2.07792" height="2.07792" fill="white"/>
<rect x="17.4668" y="11.3896" width="2.07792" height="2.07792" fill="#D9D9D9"/>
<rect x="19.5449" y="11.3896" width="2.07792" height="2.07792" fill="white"/>
<rect x="7.07812" y="11.3896" width="2.07792" height="2.07792" fill="black"/>
<rect x="21.623" y="11.3896" width="2.07792" height="2.07792" fill="#D9D9D9"/>
<rect x="9.1543" y="11.3896" width="2.07792" height="2.07792" fill="#D9D9D9"/>
<rect x="23.7012" y="11.3896" width="2.07792" height="2.07792" fill="black"/>
<rect x="11.2344" y="11.3896" width="2.07792" height="2.07792" fill="white"/>
<rect x="13.3125" y="11.3896" width="2.07792" height="2.07792" fill="#D9D9D9"/>
<rect x="15.3906" y="11.3896" width="2.07792" height="2.07792" fill="#AAAAAA"/>
<rect x="17.4668" y="7.23383" width="2.07792" height="2.07792" fill="white"/>
<rect x="19.5449" y="7.23383" width="2.07792" height="2.07792" fill="black"/>
<rect x="7.07812" y="7.23383" width="2.07792" height="2.07792" fill="black"/>
<rect x="21.623" y="7.23383" width="2.07792" height="2.07792" fill="white"/>
<rect x="9.1543" y="7.23383" width="2.07792" height="2.07792" fill="white"/>
<rect x="23.7012" y="7.23383" width="2.07792" height="2.07792" fill="black"/>
<rect x="11.2344" y="7.23383" width="2.07792" height="2.07792" fill="black"/>
<rect x="13.3125" y="7.23383" width="2.07792" height="2.07792" fill="white"/>
<rect x="15.3906" y="7.23383" width="2.07792" height="2.07792" fill="white"/>
<rect x="17.4668" y="5.15588" width="2.07792" height="2.07792" fill="white"/>
<rect x="19.5449" y="5.15588" width="2.07792" height="2.07792" fill="white"/>
<rect x="7.07812" y="5.15588" width="2.07792" height="2.07792" fill="black"/>
<rect x="21.623" y="5.15588" width="2.07792" height="2.07792" fill="white"/>
<rect x="9.1543" y="5.15588" width="2.07792" height="2.07792" fill="white"/>
<rect x="23.7012" y="5.15588" width="2.07792" height="2.07792" fill="black"/>
<rect x="11.2344" y="5.15588" width="2.07792" height="2.07792" fill="white"/>
<rect x="13.3125" y="5.15588" width="2.07792" height="2.07792" fill="white"/>
<rect x="15.3906" y="5.15588" width="2.07792" height="2.07792" fill="white"/>
<rect x="17.4668" y="3.07794" width="2.07792" height="2.07792" fill="#D9D9D9"/>
<rect x="19.5449" y="3.07794" width="2.07792" height="2.07792" fill="#D9D9D9"/>
<rect x="21.623" y="3.07794" width="2.07792" height="2.07792" fill="black"/>
<rect x="9.1543" y="3.07794" width="2.07792" height="2.07792" fill="black"/>
<rect x="11.2344" y="3.07794" width="2.07792" height="2.07792" fill="#D9D9D9"/>
<rect x="13.3125" y="3.07794" width="2.07792" height="2.07792" fill="#D9D9D9"/>
<rect x="15.3906" y="3.07794" width="2.07792" height="2.07792" fill="#D9D9D9"/>
<rect x="17.4668" y="1" width="2.07792" height="2.07792" fill="black"/>
<rect x="19.5449" y="1" width="2.07792" height="2.07792" fill="black"/>
<rect x="11.2344" y="1" width="2.07792" height="2.07792" fill="black"/>
<rect x="13.3125" y="1" width="2.07792" height="2.07792" fill="black"/>
<rect x="15.3906" y="1" width="2.07792" height="2.07792" fill="black"/>
<rect x="17.4668" y="28.013" width="2.07792" height="2.07792" fill="white"/>
<rect x="19.5449" y="28.013" width="2.07792" height="2.07792" fill="black"/>
<rect x="11.2344" y="28.013" width="2.07792" height="2.07792" fill="black"/>
<rect x="13.3125" y="28.013" width="2.07792" height="2.07792" fill="white"/>
<rect x="15.3906" y="28.013" width="2.07792" height="2.07792" fill="black"/>
</svg>
