<svg width="1920" height="900" viewBox="0 0 1920 900" fill="none" xmlns="http://www.w3.org/2000/svg">
<g clip-path="url(#clip0_235_43210)">
<rect width="1920" height="900" fill="#FF0000"/>
<g clip-path="url(#clip1_235_43210)">
<rect width="1920" height="900" fill="#1E1E1E"/>
<path d="M45.0227 7.87202e-06L0 0L-7.86805e-06 45M45.0227 7.87202e-06L45.0227 45M45.0227 7.87202e-06L90.0455 1.5744e-05M45.0227 45L-7.86805e-06 45M45.0227 45L45.0227 90M45.0227 45L90.0455 45M-7.86805e-06 45L-1.57361e-05 90M45.0227 90L-1.57361e-05 90M45.0227 90L45.0227 135M45.0227 90L90.0454 90M-1.57361e-05 90L-2.36041e-05 135M45.0227 135L-2.36041e-05 135M45.0227 135L45.0227 180M45.0227 135L90.0454 135M-2.36041e-05 135L-3.14722e-05 180M45.0227 180L-3.14722e-05 180M45.0227 180L45.0227 225M45.0227 180L90.0454 180M-3.14722e-05 180L-3.93402e-05 225M45.0227 225L-3.93402e-05 225M45.0227 225L45.0227 270M45.0227 225L90.0454 225M-3.93402e-05 225L-4.72083e-05 270M45.0227 270L-4.72083e-05 270M45.0227 270L45.0227 315M45.0227 270L90.0454 270M-4.72083e-05 270L-5.50763e-05 315M45.0227 315L-5.50763e-05 315M45.0227 315L45.0227 360M45.0227 315L90.0454 315M-5.50763e-05 315L-6.29444e-05 360M45.0227 360L-6.29444e-05 360M45.0227 360L45.0227 405M45.0227 360L90.0454 360M-6.29444e-05 360L-7.08124e-05 405M45.0227 405L-7.08124e-05 405M45.0227 405L45.0227 450M45.0227 405L90.0454 405M-7.08124e-05 405L-7.86805e-05 450M45.0227 450L-7.86805e-05 450M45.0227 450L45.0226 495M45.0227 450L90.0454 450M-7.86805e-05 450L-8.65485e-05 495M45.0226 495L-8.65485e-05 495M45.0226 495L45.0226 540M45.0226 495L90.0454 495M-8.65485e-05 495L-9.44166e-05 540M45.0226 540L-9.44166e-05 540M45.0226 540L45.0226 585M45.0226 540L90.0454 540M-9.44166e-05 540L-0.000102285 585M45.0226 585L-0.000102285 585M45.0226 585L45.0226 630M45.0226 585L90.0454 585M-0.000102285 585L-0.000110153 630M45.0226 630L-0.000110153 630M45.0226 630L45.0226 675M45.0226 630L90.0454 630M-0.000110153 630L-0.000118021 675M45.0226 675L-0.000118021 675M45.0226 675L45.0226 720M45.0226 675L90.0453 675M-0.000118021 675L-0.000125889 720M45.0226 720L-0.000125889 720M45.0226 720L45.0226 765M45.0226 720L90.0453 720M-0.000125889 720L-0.000133757 765M45.0226 765L-0.000133757 765M45.0226 765L45.0226 810M45.0226 765L90.0453 765M-0.000133757 765L-0.000141625 810M45.0226 810L-0.000141625 810M45.0226 810L45.0226 855M45.0226 810L90.0453 810M-0.000141625 810L-0.000149493 855M45.0226 855L-0.000149493 855M45.0226 855L45.0226 900M45.0226 855L90.0453 855M-0.000149493 855L-0.000157361 900L45.0226 900M45.0226 900L90.0453 900M90.0455 1.5744e-05L90.0455 45M90.0455 1.5744e-05L135.068 2.36161e-05M90.0455 45L90.0454 90M90.0455 45L135.068 45M90.0454 90L90.0454 135M90.0454 90L135.068 90M90.0454 135L90.0454 180M90.0454 135L135.068 135M90.0454 180L90.0454 225M90.0454 180L135.068 180M90.0454 225L90.0454 270M90.0454 225L135.068 225M90.0454 270L90.0454 315M90.0454 270L135.068 270M90.0454 315L90.0454 360M90.0454 315L135.068 315M90.0454 360L90.0454 405M90.0454 360L135.068 360M90.0454 405L90.0454 450M90.0454 405L135.068 405M90.0454 450L90.0454 495M90.0454 450L135.068 450M90.0454 495L90.0454 540M90.0454 495L135.068 495M90.0454 540L90.0454 585M90.0454 540L135.068 540M90.0454 585L90.0454 630M90.0454 585L135.068 585M90.0454 630L90.0453 675M90.0454 630L135.068 630M90.0453 675L90.0453 720M90.0453 675L135.068 675M90.0453 720L90.0453 765M90.0453 720L135.068 720M90.0453 765L90.0453 810M90.0453 765L135.068 765M90.0453 810L90.0453 855M90.0453 810L135.068 810M90.0453 855L90.0453 900M90.0453 855L135.068 855M90.0453 900L135.068 900M135.068 2.36161e-05L135.068 45M135.068 2.36161e-05L180.091 3.14881e-05M135.068 45L135.068 90M135.068 45L180.091 45M135.068 90L135.068 135M135.068 90L180.091 90M135.068 135L135.068 180M135.068 135L180.091 135M135.068 180L135.068 225M135.068 180L180.091 180M135.068 225L135.068 270M135.068 225L180.091 225M135.068 270L135.068 315M135.068 270L180.091 270M135.068 315L135.068 360M135.068 315L180.091 315M135.068 360L135.068 405M135.068 360L180.091 360M135.068 405L135.068 450M135.068 405L180.091 405M135.068 450L135.068 495M135.068 450L180.091 450M135.068 495L135.068 540M135.068 495L180.091 495M135.068 540L135.068 585M135.068 540L180.091 540M135.068 585L135.068 630M135.068 585L180.091 585M135.068 630L135.068 675M135.068 630L180.091 630M135.068 675L135.068 720M135.068 675L180.091 675M135.068 720L135.068 765M135.068 720L180.091 720M135.068 765L135.068 810M135.068 765L180.091 765M135.068 810L135.068 855M135.068 810L180.091 810M135.068 855L135.068 900M135.068 855L180.091 855M135.068 900L180.091 900M180.091 3.14881e-05L180.091 45M180.091 3.14881e-05L225.114 3.93601e-05M180.091 45L180.091 90M180.091 45L225.114 45M180.091 90L180.091 135M180.091 90L225.114 90M180.091 135L180.091 180M180.091 135L225.114 135M180.091 180L180.091 225M180.091 180L225.114 180M180.091 225L180.091 270M180.091 225L225.114 225M180.091 270L180.091 315M180.091 270L225.114 270M180.091 315L180.091 360M180.091 315L225.114 315M180.091 360L180.091 405M180.091 360L225.114 360M180.091 405L180.091 450M180.091 405L225.114 405M180.091 450L180.091 495M180.091 450L225.114 450M180.091 495L180.091 540M180.091 495L225.114 495M180.091 540L180.091 585M180.091 540L225.114 540M180.091 585L180.091 630M180.091 585L225.114 585M180.091 630L180.091 675M180.091 630L225.114 630M180.091 675L180.091 720M180.091 675L225.114 675M180.091 720L180.091 765M180.091 720L225.114 720M180.091 765L180.091 810M180.091 765L225.114 765M180.091 810L180.091 855M180.091 810L225.114 810M180.091 855L180.091 900M180.091 855L225.113 855M180.091 900L225.113 900M225.114 3.93601e-05L225.114 45M225.114 3.93601e-05L270.136 4.72321e-05M225.114 45L225.114 90M225.114 45L270.136 45M225.114 90L225.114 135M225.114 90L270.136 90M225.114 135L225.114 180M225.114 135L270.136 135M225.114 180L225.114 225M225.114 180L270.136 180M225.114 225L225.114 270M225.114 225L270.136 225M225.114 270L225.114 315M225.114 270L270.136 270M225.114 315L225.114 360M225.114 315L270.136 315M225.114 360L225.114 405M225.114 360L270.136 360M225.114 405L225.114 450M225.114 405L270.136 405M225.114 450L225.114 495M225.114 450L270.136 450M225.114 495L225.114 540M225.114 495L270.136 495M225.114 540L225.114 585M225.114 540L270.136 540M225.114 585L225.114 630M225.114 585L270.136 585M225.114 630L225.114 675M225.114 630L270.136 630M225.114 675L225.114 720M225.114 675L270.136 675M225.114 720L225.114 765M225.114 720L270.136 720M225.114 765L225.114 810M225.114 765L270.136 765M225.114 810L225.113 855M225.114 810L270.136 810M225.113 855L225.113 900M225.113 855L270.136 855M225.113 900L270.136 900M270.136 4.72321e-05L270.136 45M270.136 4.72321e-05L315.159 5.51042e-05M270.136 45L270.136 90M270.136 45L315.159 45M270.136 90L270.136 135M270.136 90L315.159 90M270.136 135L270.136 180M270.136 135L315.159 135M270.136 180L270.136 225M270.136 180L315.159 180M270.136 225L270.136 270M270.136 225L315.159 225M270.136 270L270.136 315M270.136 270L315.159 270M270.136 315L270.136 360M270.136 315L315.159 315M270.136 360L270.136 405M270.136 360L315.159 360M270.136 405L270.136 450M270.136 405L315.159 405M270.136 450L270.136 495M270.136 450L315.159 450M270.136 495L270.136 540M270.136 495L315.159 495M270.136 540L270.136 585M270.136 540L315.159 540M270.136 585L270.136 630M270.136 585L315.159 585M270.136 630L270.136 675M270.136 630L315.159 630M270.136 675L270.136 720M270.136 675L315.159 675M270.136 720L270.136 765M270.136 720L315.159 720M270.136 765L270.136 810M270.136 765L315.159 765M270.136 810L270.136 855M270.136 810L315.159 810M270.136 855L270.136 900M270.136 855L315.159 855M270.136 900L315.159 900M315.159 5.51042e-05L315.159 45M315.159 5.51042e-05L360.182 6.29762e-05M315.159 45L315.159 90M315.159 45L360.182 45M315.159 90L315.159 135M315.159 90L360.182 90M315.159 135L315.159 180M315.159 135L360.182 135M315.159 180L315.159 225M315.159 180L360.182 180M315.159 225L315.159 270M315.159 225L360.182 225M315.159 270L315.159 315M315.159 270L360.182 270M315.159 315L360.182 315M315.159 315L315.159 360M315.159 360L315.159 405M315.159 360L360.182 360M315.159 405L315.159 450M315.159 405L360.182 405M315.159 450L315.159 495M315.159 450L360.182 450M315.159 495L315.159 540M315.159 495L360.182 495M315.159 540L315.159 585M315.159 540L360.182 540M315.159 585L315.159 630M315.159 585L360.182 585M315.159 630L315.159 675M315.159 630L360.182 630M315.159 675L315.159 720M315.159 675L360.182 675M315.159 720L315.159 765M315.159 720L360.182 720M315.159 765L315.159 810M315.159 765L360.182 765M315.159 810L315.159 855M315.159 810L360.182 810M315.159 855L315.159 900M315.159 855L360.182 855M315.159 900L360.182 900M360.182 6.29762e-05L360.182 45M360.182 6.29762e-05L405.205 7.08482e-05M360.182 45L360.182 90M360.182 45L405.205 45.0001M360.182 90L360.182 135M360.182 90L405.205 90M360.182 135L360.182 180M360.182 135L405.205 135M360.182 180L360.182 225M360.182 180L405.205 180M360.182 225L360.182 270M360.182 225L405.205 225M360.182 270L360.182 315M360.182 270L405.205 270M360.182 315L360.182 360M360.182 315L405.205 315M360.182 360L360.182 405M360.182 360L405.205 360M360.182 405L360.182 450M360.182 405L405.205 405M360.182 450L360.182 495M360.182 450L405.205 450M360.182 495L360.182 540M360.182 495L405.205 495M360.182 540L360.182 585M360.182 540L405.204 540M360.182 585L360.182 630M360.182 585C360.182 585 387.622 585 405.204 585M360.182 630L360.182 675M360.182 630L405.204 630M360.182 675L360.182 720M360.182 675L405.204 675M360.182 720L360.182 765M360.182 720L405.204 720M360.182 765L360.182 810M360.182 765L405.204 765M360.182 810L360.182 855M360.182 810L405.204 810M360.182 855L360.182 900M360.182 855L405.204 855M360.182 900L405.204 900M405.205 7.08482e-05L405.205 45.0001M405.205 7.08482e-05L450.227 7.87202e-05M405.205 45.0001L405.205 90M405.205 45.0001L450.227 45.0001M405.205 90L405.205 135M405.205 90L450.227 90M405.205 135L405.205 180M405.205 135L450.227 135M405.205 180L405.205 225M405.205 180L450.227 180M405.205 225L405.205 270M405.205 225L450.227 225M405.205 270L405.205 315M405.205 270L450.227 270M405.205 315L405.205 360M405.205 315L450.227 315M405.205 360L405.205 405M405.205 360L450.227 360M405.205 405L405.205 450M405.205 405L450.227 405M405.205 450L405.205 495M405.205 450L450.227 450M405.205 495L405.204 540M405.205 495L450.227 495M405.204 540C405.204 540 405.204 567.426 405.204 585M405.204 540L450.227 540M405.204 585C405.204 602.573 405.204 630 405.204 630M405.204 585C422.787 585 450.227 585 450.227 585M405.204 630L405.204 675M405.204 630L450.227 630M405.204 675L405.204 720M405.204 675L450.227 675M405.204 720L405.204 765M405.204 720L450.227 720M405.204 765L405.204 810M405.204 765L450.227 765M405.204 810L405.204 855M405.204 810L450.227 810M405.204 855L405.204 900M405.204 855L450.227 855M405.204 900L450.227 900M450.227 7.87202e-05L450.227 45.0001M450.227 7.87202e-05L495.25 8.65923e-05M450.227 45.0001L450.227 90M450.227 45.0001L495.25 45.0001M450.227 90L450.227 135M450.227 90L495.25 90M450.227 135L450.227 180M450.227 135L495.25 135M450.227 180L450.227 225M450.227 180L495.25 180M450.227 225L450.227 270M450.227 225L495.25 225M450.227 270L450.227 315M450.227 270L495.25 270M450.227 315L450.227 360M450.227 315L495.25 315M450.227 360L450.227 405M450.227 360L495.25 360M450.227 405L450.227 450M450.227 405L495.25 405M450.227 450L450.227 495M450.227 450L495.25 450M450.227 495L450.227 540M450.227 495L495.25 495M450.227 540L450.227 585M450.227 540L495.25 540M450.227 585L450.227 630M450.227 585L495.25 585M450.227 630L450.227 675M450.227 630L495.25 630M450.227 675L450.227 720M450.227 675L495.25 675M450.227 720L450.227 765M450.227 720L495.25 720M450.227 765L450.227 810M450.227 765L495.25 765M450.227 810L450.227 855M450.227 810L495.25 810M450.227 855L450.227 900M450.227 855L495.25 855M450.227 900L495.25 900M495.25 8.65923e-05L495.25 45.0001M495.25 8.65923e-05L540.273 9.44643e-05M495.25 45.0001L495.25 90M495.25 45.0001L540.273 45.0001M495.25 90L495.25 135M495.25 90L540.273 90.0001M495.25 135L495.25 180M495.25 135L540.273 135M495.25 180L495.25 225M495.25 180L1485.75 180M495.25 225L495.25 270M495.25 225L1485.75 225M495.25 270L495.25 315M495.25 270L540.273 270M495.25 315L495.25 360M495.25 315L540.273 315M495.25 360L495.25 405M495.25 360L540.273 360M495.25 405L495.25 450M495.25 405L540.273 405M495.25 450L495.25 495M495.25 450L540.273 450M495.25 495L495.25 540M495.25 495L540.273 495M495.25 540L495.25 585M495.25 540L540.273 540M495.25 585L495.25 630M495.25 585L540.273 585M495.25 630L495.25 675M495.25 630L540.273 630M495.25 675L495.25 720M495.25 675L540.273 675M495.25 720L495.25 765M495.25 720L540.273 720M495.25 765L495.25 810M495.25 765L540.273 765M495.25 810L495.25 855M495.25 810L540.273 810M495.25 855L495.25 900M495.25 855L540.273 855M495.25 900L540.273 900M540.273 9.44643e-05L540.273 45.0001M540.273 9.44643e-05L585.295 0.000102336M540.273 45.0001L540.273 90.0001M540.273 45.0001L585.295 45.0001M540.273 90.0001L540.273 135M540.273 90.0001L585.295 90.0001M540.273 135L585.295 135M540.273 135L540.273 270M540.273 270L540.273 315M540.273 270L585.295 270M540.273 315L540.273 360M540.273 315L585.295 315M540.273 360L540.273 405M540.273 360L585.295 360M540.273 405L540.273 450M540.273 405L585.295 405M540.273 450L540.273 495M540.273 450L585.295 450M540.273 495L540.273 540M540.273 495L585.295 495M540.273 540L540.273 585M540.273 540L585.295 540M540.273 585L540.273 630M540.273 585L585.295 585M540.273 630L540.273 675M540.273 630L585.295 630M540.273 675L540.273 720M540.273 675L585.295 675M540.273 720L540.273 765M540.273 720L585.295 720M540.273 765L540.273 810M540.273 765L585.295 765M540.273 810L540.273 855M540.273 810L585.295 810M540.273 855L540.273 900M540.273 855L585.295 855M540.273 900L585.295 900M585.295 0.000102336L585.295 45.0001M585.295 0.000102336L630.318 0.000110208M585.295 45.0001L585.295 90.0001M585.295 45.0001L630.318 45.0001M585.295 90.0001L585.295 135M585.295 90.0001L630.318 90.0001M585.295 135L630.318 135M585.295 135L585.295 270M585.295 270L585.295 315M585.295 270L630.318 270M585.295 315L585.295 360M585.295 315L630.318 315M585.295 360L585.295 405M585.295 360L630.318 360M585.295 405L585.295 450M585.295 405L630.318 405M585.295 450L585.295 495M585.295 450L630.318 450M585.295 495L585.295 540M585.295 495L630.318 495M585.295 540L585.295 585M585.295 540L630.318 540M585.295 585L585.295 630M585.295 585L630.318 585M585.295 630L585.295 675M585.295 630L630.318 630M585.295 675L585.295 720M585.295 675L630.318 675M585.295 720L585.295 765M585.295 720L630.318 720M585.295 765L585.295 810M585.295 765L630.318 765M585.295 810L585.295 855M585.295 810L630.318 810M585.295 855L585.295 900M585.295 855L630.318 855M585.295 900L630.318 900M630.318 0.000110208L630.318 45.0001M630.318 0.000110208L675.341 0.00011808M630.318 45.0001L630.318 90.0001M630.318 45.0001L675.341 45.0001M630.318 90.0001L630.318 135M630.318 90.0001L675.341 90.0001M630.318 135L675.341 135M630.318 135L630.318 270M630.318 270L630.318 315M630.318 270L1350.68 270M630.318 315L630.318 360M630.318 315L1350.68 315M630.318 360L630.318 405M630.318 360L675.341 360M630.318 405L630.318 450M630.318 405L675.341 405M630.318 450L630.318 495M630.318 450L675.341 450M630.318 495L630.318 540M630.318 495L675.341 495M630.318 540L630.318 585M630.318 540L675.341 540M630.318 585L630.318 630M630.318 585L675.341 585M630.318 630L630.318 675M630.318 630L675.341 630M630.318 675L630.318 720M630.318 675L675.341 675M630.318 720L630.318 765M630.318 720L675.341 720M630.318 765L630.318 810M630.318 765L675.341 765M630.318 810L630.318 855M630.318 810L675.341 810M630.318 855L630.318 900M630.318 855L675.341 855M630.318 900L675.341 900M675.341 0.00011808L675.341 45.0001M675.341 0.00011808L720.364 0.000125952M675.341 45.0001L675.341 90.0001M675.341 45.0001L720.364 45.0001M675.341 90.0001L675.341 135M675.341 90.0001L720.364 90.0001M675.341 135L720.364 135M675.341 135L675.341 360M675.341 360L675.341 405M675.341 360L720.364 360M675.341 405L675.341 450M675.341 405L720.364 405M675.341 450L675.341 495M675.341 450L720.364 450M675.341 495L675.341 540M675.341 495L720.364 495M675.341 540L675.341 585M675.341 540L720.364 540M675.341 585L675.341 630M675.341 585L720.364 585M675.341 630L675.341 675M675.341 630L720.364 630M675.341 675L675.341 720M675.341 675L720.364 675M675.341 720L675.341 765M675.341 720L720.364 720M675.341 765L675.341 810M675.341 765L720.364 765M675.341 810L675.341 855M675.341 810L720.364 810M675.341 855L675.341 900M675.341 855L720.364 855M675.341 900L720.364 900M720.364 0.000125952L720.364 45.0001M720.364 0.000125952L765.386 0.000133824M720.364 45.0001L720.364 90.0001M720.364 45.0001L765.386 45.0001M720.364 90.0001L720.364 135M720.364 90.0001L765.386 90.0001M720.364 135L765.386 135M720.364 135L720.364 360M720.364 360L720.364 405M720.364 360L765.386 360M720.364 405L720.364 450M720.364 405L765.386 405M720.364 450L720.364 495M720.364 450L765.386 450M720.364 495L720.364 540M720.364 495L765.386 495M720.364 540L720.364 585M720.364 540L765.386 540M720.364 585L720.364 630M720.364 585L765.386 585M720.364 630L720.364 675M720.364 630L765.386 630M720.364 675L720.364 720M720.364 675L765.386 675M720.364 720L720.364 765M720.364 720L765.386 720M720.364 765L720.364 810M720.364 765L765.386 765M720.364 810L720.364 855M720.364 810L765.386 810M720.364 855L720.364 900M720.364 855L765.386 855M720.364 900L765.386 900M765.386 0.000133824L765.386 45.0001M765.386 0.000133824L810.409 0.000141696M765.386 45.0001L765.386 90.0001M765.386 45.0001L810.409 45.0001M765.386 90.0001L765.386 135M765.386 90.0001L810.409 90.0001M765.386 135L810.409 135M765.386 135L765.386 360M765.386 360L765.386 405M765.386 360L810.409 360M765.386 405L765.386 450M765.386 405L810.409 405M765.386 450L765.386 495M765.386 450L810.409 450M765.386 495L765.386 540M765.386 495L810.409 495M765.386 540L765.386 585M765.386 540L810.409 540M765.386 585L765.386 630M765.386 585L810.409 585M765.386 630L765.386 675M765.386 630L810.409 630M765.386 675L765.386 720M765.386 675L810.409 675M765.386 720L765.386 765M765.386 720L810.409 720M765.386 765L765.386 810M765.386 765L810.409 765M765.386 810L765.386 855M765.386 810L810.409 810M765.386 855L765.386 900M765.386 855L810.409 855M765.386 900L810.409 900M810.409 0.000141696L810.409 45.0001M810.409 0.000141696L855.432 0.000149568M810.409 45.0001L810.409 90.0001M810.409 45.0001L855.432 45.0001M810.409 90.0001L810.409 135M810.409 90.0001L855.432 90.0001M810.409 135L855.432 135M810.409 135L810.409 360M810.409 360L810.409 405M810.409 360L855.432 360M810.409 405L810.409 450M810.409 405L855.432 405M810.409 450L810.409 495M810.409 450L855.432 450M810.409 495L810.409 540M810.409 495L855.432 495M810.409 540L810.409 585M810.409 540L855.432 540M810.409 585L810.409 630M810.409 585L855.432 585M810.409 630L810.409 675M810.409 630L855.432 630M810.409 675L810.409 720M810.409 675L855.432 675M810.409 720L810.409 765M810.409 720L855.432 720M810.409 765L810.409 810M810.409 765L855.432 765M810.409 810L810.409 855M810.409 810L855.432 810M810.409 855L810.409 900M810.409 855L855.432 855M810.409 900L855.432 900M855.432 0.000149568L855.432 45.0001M855.432 0.000149568L900.455 0.00015744M855.432 45.0001L855.432 90.0001M855.432 45.0001L900.455 45.0001M855.432 90.0001L855.432 135M855.432 90.0001L900.455 90.0001M855.432 135L900.455 135M855.432 135L855.432 360M855.432 360L855.432 405M855.432 360L900.455 360M855.432 405L855.432 450M855.432 405L900.455 405M855.432 450L855.432 495M855.432 450L900.455 450M855.432 495L855.432 540M855.432 495L900.455 495M855.432 540L855.432 585M855.432 540L900.454 540M855.432 585L855.432 630M855.432 585L900.454 585M855.432 630L855.432 675M855.432 630L900.454 630M855.432 675L855.432 720M855.432 675L900.454 675M855.432 720L855.432 765M855.432 720L900.454 720M855.432 765L855.432 810M855.432 765L900.454 765M855.432 810L855.432 855M855.432 810L900.454 810M855.432 855L855.432 900M855.432 855L900.454 855M855.432 900L900.454 900M900.455 0.00015744L900.455 45.0001M900.455 0.00015744L945.477 0.000165313M900.455 45.0001L900.455 90.0001M900.455 45.0001L945.477 45.0001M900.455 90.0001L900.455 135M900.455 90.0001L945.477 90.0001M900.455 135L945.477 135M900.455 135L900.455 360M900.455 360L900.455 405M900.455 360L945.477 360M900.455 405L900.455 450M900.455 405L945.477 405M900.455 450L900.455 495M900.455 450L945.477 450M900.455 495L900.454 540M900.455 495L945.477 495M900.454 540L900.454 585M900.454 540L945.477 540M900.454 585L900.454 630M900.454 585L945.477 585M900.454 630L900.454 675M900.454 630L945.477 630M900.454 675L900.454 720M900.454 675L945.477 675M900.454 720L900.454 765M900.454 720L945.477 720M900.454 765L900.454 810M900.454 765L945.477 765M900.454 810L900.454 855M900.454 810L945.477 810M900.454 855L900.454 900M900.454 855L945.477 855M900.454 900L945.477 900M945.477 0.000165313L945.477 45.0001M945.477 0.000165313L990.5 0.000173185M945.477 45.0001L990.5 45.0002M945.477 45.0001L945.477 90.0001M945.477 90.0001L945.477 135M945.477 90.0001L990.5 90.0001M945.477 135L990.5 135M945.477 135L945.477 360M945.477 360L945.477 405M945.477 360L990.5 360M945.477 405L945.477 450M945.477 405L990.5 405M945.477 450L945.477 495M945.477 450L990.5 450M945.477 495L945.477 540M945.477 495L990.5 495M945.477 540L945.477 585M945.477 540L990.5 540M945.477 585L945.477 630M945.477 585L990.5 585M945.477 630L945.477 675M945.477 630L990.5 630M945.477 675L945.477 720M945.477 675L990.5 675M945.477 720L945.477 765M945.477 720L990.5 720M945.477 765L945.477 810M945.477 765L990.5 765M945.477 810L945.477 855M945.477 810L990.5 810M945.477 855L945.477 900M945.477 855L990.5 855M945.477 900L990.5 900M990.5 0.000173185L990.5 45.0002M990.5 0.000173185L1035.52 0.000181057M990.5 45.0002L1035.52 45.0002M990.5 45.0002L990.5 90.0001M990.5 90.0001L990.5 135M990.5 90.0001L1035.52 90.0001M990.5 135L1035.52 135M990.5 135L990.5 360M990.5 360L990.5 405M990.5 360L1035.52 360M990.5 405L990.5 450M990.5 405L1035.52 405M990.5 450L990.5 495M990.5 450L1035.52 450M990.5 495L990.5 540M990.5 495L1035.52 495M990.5 540L990.5 585M990.5 540L1035.52 540M990.5 585L990.5 630M990.5 585L1035.52 585M990.5 630L990.5 675M990.5 630L1035.52 630M990.5 675L990.5 720M990.5 675L1035.52 675M990.5 720L990.5 765M990.5 720L1035.52 720M990.5 765L990.5 810M990.5 765L1035.52 765M990.5 810L990.5 855M990.5 810L1035.52 810M990.5 855L990.5 900M990.5 855L1035.52 855M990.5 900L1035.52 900M1035.52 0.000181057L1035.52 45.0002M1035.52 0.000181057L1080.55 0.000188929M1035.52 45.0002L1080.55 45.0002M1035.52 45.0002L1035.52 90.0001M1035.52 90.0001L1035.52 135M1035.52 90.0001L1080.55 90.0002M1035.52 135L1080.55 135M1035.52 135L1035.52 360M1035.52 360L1035.52 405M1035.52 360L1080.55 360M1035.52 405L1035.52 450M1035.52 405L1080.55 405M1035.52 450L1035.52 495M1035.52 450L1080.55 450M1035.52 495L1035.52 540M1035.52 495L1080.55 495M1035.52 540L1035.52 585M1035.52 540L1080.55 540M1035.52 585L1035.52 630M1035.52 585L1080.55 585M1035.52 630L1035.52 675M1035.52 630L1080.55 630M1035.52 675L1035.52 720M1035.52 675L1080.55 675M1035.52 720L1035.52 765M1035.52 720L1080.55 720M1035.52 765L1035.52 810M1035.52 765L1080.55 765M1035.52 810L1035.52 855M1035.52 810L1080.55 810M1035.52 855L1035.52 900M1035.52 855L1080.55 855M1035.52 900L1080.55 900M1080.55 0.000188929L1080.55 45.0002M1080.55 0.000188929L1125.57 0.000196801M1080.55 45.0002L1125.57 45.0002M1080.55 45.0002L1080.55 90.0002M1080.55 90.0002L1080.55 135M1080.55 90.0002L1125.57 90.0002M1080.55 135L1125.57 135M1080.55 135L1080.55 360M1080.55 360L1080.55 405M1080.55 360L1125.57 360M1080.55 405L1080.55 450M1080.55 405L1125.57 405M1080.55 450L1080.55 495M1080.55 450L1125.57 450M1080.55 495L1080.55 540M1080.55 495L1125.57 495M1080.55 540L1080.55 585M1080.55 540L1125.57 540M1080.55 585L1080.55 630M1080.55 585L1125.57 585M1080.55 630L1080.55 675M1080.55 630L1125.57 630M1080.55 675L1080.55 720M1080.55 675L1125.57 675M1080.55 720L1080.55 765M1080.55 720L1125.57 720M1080.55 765L1080.55 810M1080.55 765L1125.57 765M1080.55 810L1080.55 855M1080.55 810L1125.57 810M1080.55 855L1080.55 900M1080.55 855L1125.57 855M1080.55 900L1125.57 900M1125.57 0.000196801L1125.57 45.0002M1125.57 0.000196801L1170.59 0.000204673M1125.57 45.0002L1125.57 90.0002M1125.57 45.0002L1170.59 45.0002M1125.57 90.0002L1125.57 135M1125.57 90.0002L1170.59 90.0002M1125.57 135L1170.59 135M1125.57 135L1125.57 360M1125.57 360L1125.57 405M1125.57 360L1170.59 360M1125.57 405L1125.57 450M1125.57 405L1170.59 405M1125.57 450L1125.57 495M1125.57 450L1170.59 450M1125.57 495L1125.57 540M1125.57 495L1170.59 495M1125.57 540L1125.57 585M1125.57 540L1170.59 540M1125.57 585L1125.57 630M1125.57 585L1170.59 585M1125.57 630L1125.57 675M1125.57 630L1170.59 630M1125.57 675L1125.57 720M1125.57 675L1170.59 675M1125.57 720L1125.57 765M1125.57 720L1170.59 720M1125.57 765L1125.57 810M1125.57 765L1170.59 765M1125.57 810L1125.57 855M1125.57 810L1170.59 810M1125.57 855L1125.57 900M1125.57 855L1170.59 855M1125.57 900L1170.59 900M1170.59 0.000204673L1170.59 45.0002M1170.59 0.000204673L1215.61 0.000212545M1170.59 45.0002L1170.59 90.0002M1170.59 45.0002L1215.61 45.0002M1170.59 90.0002L1170.59 135M1170.59 90.0002L1215.61 90.0002M1170.59 135L1215.61 135M1170.59 135L1170.59 360M1170.59 360L1170.59 405M1170.59 360L1215.61 360M1170.59 405L1170.59 450M1170.59 405L1215.61 405M1170.59 450L1170.59 495M1170.59 450L1215.61 450M1170.59 495L1170.59 540M1170.59 495L1215.61 495M1170.59 540L1170.59 585M1170.59 540L1215.61 540M1170.59 585L1170.59 630M1170.59 585L1215.61 585M1170.59 630L1170.59 675M1170.59 630L1215.61 630M1170.59 675L1170.59 720M1170.59 675L1215.61 675M1170.59 720L1170.59 765M1170.59 720L1215.61 720M1170.59 765L1170.59 810M1170.59 765L1215.61 765M1170.59 810L1170.59 855M1170.59 810L1215.61 810M1170.59 855L1170.59 900M1170.59 855L1215.61 855M1170.59 900L1215.61 900M1215.61 0.000212545L1215.61 45.0002M1215.61 0.000212545L1260.64 0.000220417M1215.61 45.0002L1215.61 90.0002M1215.61 45.0002L1260.64 45.0002M1215.61 90.0002L1215.61 135M1215.61 90.0002L1260.64 90.0002M1215.61 135L1260.64 135M1215.61 135L1215.61 360M1215.61 360L1215.61 405M1215.61 360L1260.64 360M1215.61 405L1215.61 450M1215.61 405L1260.64 405M1215.61 450L1215.61 495M1215.61 450L1260.64 450M1215.61 495L1215.61 540M1215.61 495L1260.64 495M1215.61 540L1215.61 585M1215.61 540L1260.64 540M1215.61 585L1215.61 630M1215.61 585L1260.64 585M1215.61 630L1215.61 675M1215.61 630L1260.64 630M1215.61 675L1215.61 720M1215.61 675L1260.64 675M1215.61 720L1215.61 765M1215.61 720L1260.64 720M1215.61 765L1215.61 810M1215.61 765L1260.64 765M1215.61 810L1215.61 855M1215.61 810L1260.64 810M1215.61 855L1215.61 900M1215.61 855L1260.64 855M1215.61 900L1260.64 900M1260.64 0.000220417L1260.64 45.0002M1260.64 0.000220417L1305.66 0.000228289M1260.64 45.0002L1260.64 90.0002M1260.64 45.0002L1305.66 45.0002M1260.64 90.0002L1260.64 135M1260.64 90.0002L1305.66 90.0002M1260.64 135L1305.66 135M1260.64 135L1260.64 360M1260.64 360L1260.64 405M1260.64 360L1305.66 360M1260.64 405L1260.64 450M1260.64 405L1305.66 405M1260.64 450L1260.64 495M1260.64 450L1305.66 450M1260.64 495L1260.64 540M1260.64 495L1305.66 495M1260.64 540L1260.64 585M1260.64 540L1305.66 540M1260.64 585L1260.64 630M1260.64 585L1305.66 585M1260.64 630L1260.64 675M1260.64 630L1305.66 630M1260.64 675L1260.64 720M1260.64 675L1305.66 675M1260.64 720L1260.64 765M1260.64 720L1305.66 720M1260.64 765L1260.64 810M1260.64 765L1305.66 765M1260.64 810L1260.64 855M1260.64 810L1305.66 810M1260.64 855L1260.64 900M1260.64 855L1305.66 855M1260.64 900L1305.66 900M1305.66 0.000228289L1305.66 45.0002M1305.66 0.000228289L1350.68 0.000236161M1305.66 45.0002L1305.66 90.0002M1305.66 45.0002L1350.68 45.0002M1305.66 90.0002L1305.66 135M1305.66 90.0002L1350.68 90.0002M1305.66 135L1350.68 135M1305.66 135L1305.66 360M1305.66 360L1305.66 405M1305.66 360L1350.68 360M1305.66 405L1305.66 450M1305.66 405L1350.68 405M1305.66 450L1305.66 495M1305.66 450L1350.68 450M1305.66 495L1305.66 540M1305.66 495L1350.68 495M1305.66 540L1305.66 585M1305.66 540L1350.68 540M1305.66 585L1305.66 630M1305.66 585L1350.68 585M1305.66 630L1305.66 675M1305.66 630L1350.68 630M1305.66 675L1305.66 720M1305.66 675L1350.68 675M1305.66 720L1305.66 765M1305.66 720L1350.68 720M1305.66 765L1305.66 810M1305.66 765L1350.68 765M1305.66 810L1305.66 855M1305.66 810L1350.68 810M1305.66 855L1305.66 900M1305.66 855L1350.68 855M1305.66 900L1350.68 900M1350.68 0.000236161L1350.68 45.0002M1350.68 0.000236161L1395.7 0.000244033M1350.68 45.0002L1350.68 90.0002M1350.68 45.0002L1395.7 45.0002M1350.68 90.0002L1350.68 135M1350.68 90.0002L1395.7 90.0002M1350.68 135L1395.7 135M1350.68 135L1350.68 270M1350.68 270L1350.68 315M1350.68 270L1395.7 270M1350.68 315L1350.68 360M1350.68 315L1395.7 315M1350.68 360L1350.68 405M1350.68 360L1395.7 360M1350.68 405L1350.68 450M1350.68 405L1395.7 405M1350.68 450L1350.68 495M1350.68 450L1395.7 450M1350.68 495L1350.68 540M1350.68 495L1395.7 495M1350.68 540L1350.68 585M1350.68 540L1395.7 540M1350.68 585L1350.68 630M1350.68 585L1395.7 585M1350.68 630L1350.68 675M1350.68 630L1395.7 630M1350.68 675L1350.68 720M1350.68 675L1395.7 675M1350.68 720L1350.68 765M1350.68 720L1395.7 720M1350.68 765L1350.68 810M1350.68 765L1395.7 765M1350.68 810L1350.68 855M1350.68 810L1395.7 810M1350.68 855L1350.68 900M1350.68 855L1395.7 855M1350.68 900L1395.7 900M1395.7 0.000244033L1395.7 45.0002M1395.7 0.000244033L1440.73 0.000251905M1395.7 45.0002L1395.7 90.0002M1395.7 45.0002L1440.73 45.0002M1395.7 90.0002L1395.7 135M1395.7 90.0002L1440.73 90.0002M1395.7 135L1440.73 135M1395.7 135L1395.7 270M1395.7 270L1395.7 315M1395.7 270L1440.73 270M1395.7 315L1395.7 360M1395.7 315L1440.73 315M1395.7 360L1395.7 405M1395.7 360L1440.73 360M1395.7 405L1395.7 450M1395.7 405L1440.73 405M1395.7 450L1395.7 495M1395.7 450L1440.73 450M1395.7 495L1395.7 540M1395.7 495L1440.73 495M1395.7 540L1395.7 585M1395.7 540L1440.73 540M1395.7 585L1395.7 630M1395.7 585L1440.73 585M1395.7 630L1395.7 675M1395.7 630L1440.73 630M1395.7 675L1395.7 720M1395.7 675L1440.73 675M1395.7 720L1395.7 765M1395.7 720L1440.73 720M1395.7 765L1395.7 810M1395.7 765L1440.73 765M1395.7 810L1395.7 855M1395.7 810L1440.73 810M1395.7 855L1395.7 900M1395.7 855L1440.73 855M1395.7 900L1440.73 900M1440.73 0.000251905L1440.73 45.0002M1440.73 0.000251905L1485.75 0.000259777M1440.73 45.0002L1440.73 90.0002M1440.73 45.0002L1485.75 45.0002M1440.73 90.0002L1440.73 135M1440.73 90.0002L1485.75 90.0002M1440.73 135L1485.75 135M1440.73 135L1440.73 270M1440.73 270L1440.73 315M1440.73 270L1485.75 270M1440.73 315L1440.73 360M1440.73 315L1485.75 315M1440.73 360L1440.73 405M1440.73 360L1485.75 360M1440.73 405L1440.73 450M1440.73 405L1485.75 405M1440.73 450L1440.73 495M1440.73 450L1485.75 450M1440.73 495L1440.73 540M1440.73 495L1485.75 495M1440.73 540L1440.73 585M1440.73 540L1485.75 540M1440.73 585L1440.73 630M1440.73 585L1485.75 585M1440.73 630L1440.73 675M1440.73 630L1485.75 630M1440.73 675L1440.73 720M1440.73 675L1485.75 675M1440.73 720L1440.73 765M1440.73 720L1485.75 720M1440.73 765L1440.73 810M1440.73 765L1485.75 765M1440.73 810L1440.73 855M1440.73 810L1485.75 810M1440.73 855L1440.73 900M1440.73 855L1485.75 855M1440.73 900L1485.75 900M1485.75 0.000259777L1485.75 45.0002M1485.75 0.000259777L1530.77 0.000267649M1485.75 45.0002L1485.75 90.0002M1485.75 45.0002L1530.77 45.0002M1485.75 90.0002L1485.75 135M1485.75 90.0002L1530.77 90.0002M1485.75 135L1485.75 180M1485.75 135L1530.77 135M1485.75 180L1485.75 225M1485.75 180L1530.77 180M1485.75 225L1485.75 270M1485.75 225L1530.77 225M1485.75 270L1485.75 315M1485.75 270L1530.77 270M1485.75 315L1485.75 360M1485.75 315L1530.77 315M1485.75 360L1485.75 405M1485.75 360L1530.77 360M1485.75 405L1485.75 450M1485.75 405L1530.77 405M1485.75 450L1485.75 495M1485.75 450L1530.77 450M1485.75 495L1485.75 540M1485.75 495L1530.77 495M1485.75 540L1485.75 585M1485.75 540L1530.77 540M1485.75 585L1485.75 630M1485.75 585L1530.77 585M1485.75 630L1485.75 675M1485.75 630L1530.77 630M1485.75 675L1485.75 720M1485.75 675L1530.77 675M1485.75 720L1485.75 765M1485.75 720L1530.77 720M1485.75 765L1485.75 810M1485.75 765L1530.77 765M1485.75 810L1485.75 855M1485.75 810L1530.77 810M1485.75 855L1485.75 900M1485.75 855L1530.77 855M1485.75 900L1530.77 900M1530.77 0.000267649L1530.77 45.0002M1530.77 0.000267649L1575.8 0.000275521M1530.77 45.0002L1530.77 90.0002M1530.77 45.0002L1575.8 45.0003M1530.77 90.0002L1530.77 135M1530.77 90.0002L1575.8 90.0002M1530.77 135L1530.77 180M1530.77 135L1575.8 135M1530.77 180L1530.77 225M1530.77 180L1575.8 180M1530.77 225L1530.77 270M1530.77 225L1575.8 225M1530.77 270L1530.77 315M1530.77 270L1575.8 270M1530.77 315L1530.77 360M1530.77 315L1575.8 315M1530.77 360L1530.77 405M1530.77 360L1575.8 360M1530.77 405L1530.77 450M1530.77 405L1575.8 405M1530.77 450L1530.77 495M1530.77 450L1575.8 450M1530.77 495L1530.77 540M1530.77 495L1575.8 495M1530.77 540L1530.77 585M1530.77 540L1575.8 540M1530.77 585L1530.77 630M1530.77 585L1575.8 585M1530.77 630L1530.77 675M1530.77 630L1575.8 630M1530.77 675L1530.77 720M1530.77 675L1575.8 675M1530.77 720L1530.77 765M1530.77 720L1575.8 720M1530.77 765L1530.77 810M1530.77 765L1575.8 765M1530.77 810L1530.77 855M1530.77 810L1575.8 810M1530.77 855L1530.77 900M1530.77 855L1575.8 855M1530.77 900L1575.8 900M1575.8 0.000275521L1575.8 45.0003M1575.8 0.000275521L1620.82 0.000283393M1575.8 45.0003L1575.8 90.0002M1575.8 45.0003L1620.82 45.0003M1575.8 90.0002L1575.8 135M1575.8 90.0002L1620.82 90.0002M1575.8 135L1575.8 180M1575.8 135L1620.82 135M1575.8 180L1575.8 225M1575.8 180L1620.82 180M1575.8 225L1575.8 270M1575.8 225L1620.82 225M1575.8 270L1575.8 315M1575.8 270L1620.82 270M1575.8 315L1575.8 360M1575.8 315L1620.82 315M1575.8 360L1575.8 405M1575.8 360L1620.82 360M1575.8 405L1575.8 450M1575.8 405L1620.82 405M1575.8 450L1575.8 495M1575.8 450L1620.82 450M1575.8 495L1575.8 540M1575.8 495L1620.82 495M1575.8 540L1575.8 585M1575.8 540L1620.82 540M1575.8 585L1575.8 630M1575.8 585L1620.82 585M1575.8 630L1575.8 675M1575.8 630L1620.82 630M1575.8 675L1575.8 720M1575.8 675L1620.82 675M1575.8 720L1575.8 765M1575.8 720L1620.82 720M1575.8 765L1575.8 810M1575.8 765L1620.82 765M1575.8 810L1575.8 855M1575.8 810L1620.82 810M1575.8 855L1575.8 900M1575.8 855L1620.82 855M1575.8 900L1620.82 900M1620.82 0.000283393L1620.82 45.0003M1620.82 0.000283393L1665.84 0.000291265M1620.82 45.0003L1620.82 90.0002M1620.82 45.0003L1665.84 45.0003M1620.82 90.0002L1620.82 135M1620.82 90.0002L1665.84 90.0003M1620.82 135L1620.82 180M1620.82 135L1665.84 135M1620.82 180L1620.82 225M1620.82 180L1665.84 180M1620.82 225L1620.82 270M1620.82 225L1665.84 225M1620.82 270L1620.82 315M1620.82 270L1665.84 270M1620.82 315L1620.82 360M1620.82 315L1665.84 315M1620.82 360L1620.82 405M1620.82 360L1665.84 360M1620.82 405L1620.82 450M1620.82 405L1665.84 405M1620.82 450L1620.82 495M1620.82 450L1665.84 450M1620.82 495L1620.82 540M1620.82 495L1665.84 495M1620.82 540L1620.82 585M1620.82 540L1665.84 540M1620.82 585L1620.82 630M1620.82 585L1665.84 585M1620.82 630L1620.82 675M1620.82 630L1665.84 630M1620.82 675L1620.82 720M1620.82 675L1665.84 675M1620.82 720L1620.82 765M1620.82 720L1665.84 720M1620.82 765L1620.82 810M1620.82 765L1665.84 765M1620.82 810L1620.82 855M1620.82 810L1665.84 810M1620.82 855L1620.82 900M1620.82 855L1665.84 855M1620.82 900L1665.84 900M1665.84 0.000291265L1665.84 45.0003M1665.84 0.000291265L1710.86 0.000299137M1665.84 45.0003L1665.84 90.0003M1665.84 45.0003L1710.86 45.0003M1665.84 90.0003L1665.84 135M1665.84 90.0003L1710.86 90.0003M1665.84 135L1665.84 180M1665.84 135L1710.86 135M1665.84 180L1665.84 225M1665.84 180L1710.86 180M1665.84 225L1665.84 270M1665.84 225L1710.86 225M1665.84 270L1665.84 315M1665.84 270L1710.86 270M1665.84 315L1710.86 315M1665.84 315L1665.84 360M1665.84 360L1665.84 405M1665.84 360L1710.86 360M1665.84 405L1665.84 450M1665.84 405L1710.86 405M1665.84 450L1665.84 495M1665.84 450L1710.86 450M1665.84 495L1665.84 540M1665.84 495L1710.86 495M1665.84 540L1665.84 585M1665.84 540L1710.86 540M1665.84 585L1665.84 630M1665.84 585L1710.86 585M1665.84 630L1665.84 675M1665.84 630L1710.86 630M1665.84 675L1665.84 720M1665.84 675L1710.86 675M1665.84 720L1665.84 765M1665.84 720L1710.86 720M1665.84 765L1665.84 810M1665.84 765L1710.86 765M1665.84 810L1665.84 855M1665.84 810L1710.86 810M1665.84 855L1665.84 900M1665.84 855L1710.86 855M1665.84 900L1710.86 900M1710.86 0.000299137L1710.86 45.0003M1710.86 0.000299137L1755.89 0.000307009M1710.86 45.0003L1710.86 90.0003M1710.86 45.0003L1755.89 45.0003M1710.86 90.0003L1710.86 135M1710.86 90.0003L1755.89 90.0003M1710.86 135L1710.86 180M1710.86 135L1755.89 135M1710.86 180L1710.86 225M1710.86 180L1755.89 180M1710.86 225L1710.86 270M1710.86 225L1755.89 225M1710.86 270L1710.86 315M1710.86 270L1755.89 270M1710.86 315L1710.86 360M1710.86 315L1755.89 315M1710.86 360L1710.86 405M1710.86 360L1755.89 360M1710.86 405L1710.86 450M1710.86 405L1755.89 405M1710.86 450L1710.86 495M1710.86 450L1755.89 450M1710.86 495L1710.86 540M1710.86 495L1755.89 495M1710.86 540L1710.86 585M1710.86 540L1755.89 540M1710.86 585L1710.86 630M1710.86 585L1755.89 585M1710.86 630L1710.86 675M1710.86 630L1755.89 630M1710.86 675L1710.86 720M1710.86 675L1755.89 675M1710.86 720L1710.86 765M1710.86 720L1755.89 720M1710.86 765L1710.86 810M1710.86 765L1755.89 765M1710.86 810L1710.86 855M1710.86 810L1755.89 810M1710.86 855L1710.86 900M1710.86 855L1755.89 855M1710.86 900L1755.89 900M1755.89 0.000307009L1755.89 45.0003M1755.89 0.000307009L1800.91 0.000314881M1755.89 45.0003L1755.89 90.0003M1755.89 45.0003L1800.91 45.0003M1755.89 90.0003L1755.89 135M1755.89 90.0003L1800.91 90.0003M1755.89 135L1755.89 180M1755.89 135L1800.91 135M1755.89 180L1755.89 225M1755.89 180L1800.91 180M1755.89 225L1755.89 270M1755.89 225L1800.91 225M1755.89 270L1755.89 315M1755.89 270L1800.91 270M1755.89 315L1755.89 360M1755.89 315L1800.91 315M1755.89 360L1755.89 405M1755.89 360L1800.91 360M1755.89 405L1755.89 450M1755.89 405L1800.91 405M1755.89 450L1755.89 495M1755.89 450L1800.91 450M1755.89 495L1755.89 540M1755.89 495L1800.91 495M1755.89 540L1755.89 585M1755.89 540L1800.91 540M1755.89 585L1755.89 630M1755.89 585L1800.91 585M1755.89 630L1755.89 675M1755.89 630L1800.91 630M1755.89 675L1755.89 720M1755.89 675L1800.91 675M1755.89 720L1755.89 765M1755.89 720L1800.91 720M1755.89 765L1755.89 810M1755.89 765L1800.91 765M1755.89 810L1755.89 855M1755.89 810L1800.91 810M1755.89 855L1755.89 900M1755.89 855L1800.91 855M1755.89 900L1800.91 900M1800.91 0.000314881L1800.91 45.0003M1800.91 0.000314881L1845.93 0.000322753M1800.91 45.0003L1800.91 90.0003M1800.91 45.0003L1845.93 45.0003M1800.91 90.0003L1800.91 135M1800.91 90.0003L1845.93 90.0003M1800.91 135L1800.91 180M1800.91 135L1845.93 135M1800.91 180L1800.91 225M1800.91 180L1845.93 180M1800.91 225L1800.91 270M1800.91 225L1845.93 225M1800.91 270L1800.91 315M1800.91 270L1845.93 270M1800.91 315L1800.91 360M1800.91 315L1845.93 315M1800.91 360L1800.91 405M1800.91 360L1845.93 360M1800.91 405L1800.91 450M1800.91 405L1845.93 405M1800.91 450L1800.91 495M1800.91 450L1845.93 450M1800.91 495L1800.91 540M1800.91 495L1845.93 495M1800.91 540L1800.91 585M1800.91 540L1845.93 540M1800.91 585L1800.91 630M1800.91 585L1845.93 585M1800.91 630L1800.91 675M1800.91 630L1845.93 630M1800.91 675L1800.91 720M1800.91 675L1845.93 675M1800.91 720L1800.91 765M1800.91 720L1845.93 720M1800.91 765L1800.91 810M1800.91 765L1845.93 765M1800.91 810L1800.91 855M1800.91 810L1845.93 810M1800.91 855L1800.91 900M1800.91 855L1845.93 855M1800.91 900L1845.93 900M1845.93 0.000322753L1845.93 45.0003M1845.93 0.000322753L1890.95 0.000330625M1845.93 45.0003L1845.93 90.0003M1845.93 45.0003L1890.95 45.0003M1845.93 90.0003L1845.93 135M1845.93 90.0003L1890.95 90.0003M1845.93 135L1845.93 180M1845.93 135L1890.95 135M1845.93 180L1845.93 225M1845.93 180L1890.95 180M1845.93 225L1845.93 270M1845.93 225L1890.95 225M1845.93 270L1845.93 315M1845.93 270L1890.95 270M1845.93 315L1845.93 360M1845.93 315L1890.95 315M1845.93 360L1845.93 405M1845.93 360L1890.95 360M1845.93 405L1845.93 450M1845.93 405L1890.95 405M1845.93 450L1845.93 495M1845.93 450L1890.95 450M1845.93 495L1845.93 540M1845.93 495L1890.95 495M1845.93 540L1845.93 585M1845.93 540L1890.95 540M1845.93 585L1845.93 630M1845.93 585L1890.95 585M1845.93 630L1845.93 675M1845.93 630L1890.95 630M1845.93 675L1845.93 720M1845.93 675L1890.95 675M1845.93 720L1845.93 765M1845.93 720L1890.95 720M1845.93 765L1845.93 810M1845.93 765L1890.95 765M1845.93 810L1845.93 855M1845.93 810L1890.95 810M1845.93 855L1845.93 900M1845.93 855L1890.95 855M1845.93 900L1890.95 900M1890.95 0.000330625L1890.95 45.0003M1890.95 0.000330625L1935.98 0.000338497M1890.95 45.0003L1890.95 90.0003M1890.95 45.0003L1935.98 45.0003M1890.95 90.0003L1890.95 135M1890.95 90.0003L1935.98 90.0003M1890.95 135L1890.95 180M1890.95 135L1935.98 135M1890.95 180L1890.95 225M1890.95 180L1935.98 180M1890.95 225L1890.95 270M1890.95 225L1935.98 225M1890.95 270L1890.95 315M1890.95 270L1935.98 270M1890.95 315L1890.95 360M1890.95 315L1935.98 315M1890.95 360L1890.95 405M1890.95 360L1935.98 360M1890.95 405L1890.95 450M1890.95 405L1935.98 405M1890.95 450L1890.95 495M1890.95 450L1935.98 450M1890.95 495L1890.95 540M1890.95 495L1935.98 495M1890.95 540L1890.95 585M1890.95 540L1935.98 540M1890.95 585L1890.95 630M1890.95 585L1935.98 585M1890.95 630L1890.95 675M1890.95 630L1935.98 630M1890.95 675L1890.95 720M1890.95 675L1935.98 675M1890.95 720L1890.95 765M1890.95 720L1935.98 720M1890.95 765L1890.95 810M1890.95 765L1935.98 765M1890.95 810L1890.95 855M1890.95 810L1935.98 810M1890.95 855L1890.95 900M1890.95 855L1935.98 855M1890.95 900L1935.98 900M1935.98 0.000338497L1935.98 45.0003M1935.98 0.000338497L1981 0.000346369L1981 45.0003M1935.98 45.0003L1935.98 90.0003M1935.98 45.0003L1981 45.0003M1935.98 90.0003L1935.98 135M1935.98 90.0003L1981 90.0003M1935.98 135L1935.98 180M1935.98 135L1981 135M1935.98 180L1935.98 225M1935.98 180L1981 180M1935.98 225L1935.98 270M1935.98 225L1981 225M1935.98 270L1935.98 315M1935.98 270L1981 270M1935.98 315L1935.98 360M1935.98 315L1981 315M1935.98 360L1935.98 405M1935.98 360L1981 360M1935.98 405L1935.98 450M1935.98 405L1981 405M1935.98 450L1935.98 495M1935.98 450L1981 450M1935.98 495L1935.98 540M1935.98 495L1981 495M1935.98 540L1935.98 585M1935.98 540L1981 540M1935.98 585L1935.98 630M1935.98 585L1981 585M1935.98 630L1935.98 675M1935.98 630L1981 630M1935.98 675L1935.98 720M1935.98 675L1981 675M1935.98 720L1935.98 765M1935.98 720L1981 720M1935.98 765L1935.98 810M1935.98 765L1981 765M1935.98 810L1935.98 855M1935.98 810L1981 810M1935.98 855L1935.98 900M1935.98 855L1981 855M1935.98 900L1981 900L1981 855M1981 45.0003L1981 90.0003M1981 90.0003L1981 135M1981 135L1981 180M1981 180L1981 225M1981 225L1981 270M1981 270L1981 315M1981 315L1981 360M1981 360L1981 405M1981 405L1981 450M1981 450L1981 495M1981 495L1981 540M1981 540L1981 585M1981 585L1981 630M1981 630L1981 675M1981 675L1981 720M1981 720L1981 765M1981 765L1981 810M1981 810L1981 855" stroke="white" stroke-opacity="0.1"/>
</g>
</g>
<defs>
<clipPath id="clip0_235_43210">
<rect width="1920" height="900" fill="white"/>
</clipPath>
<clipPath id="clip1_235_43210">
<rect width="1920" height="900" fill="white"/>
</clipPath>
</defs>
</svg>
