<svg width="1982" height="901" viewBox="0 0 1982 901" fill="none" xmlns="http://www.w3.org/2000/svg">
<path d="M45.5227 0.500008L0.5 0.5L0.499992 45.5M45.5227 0.500008L45.5227 45.5M45.5227 0.500008L90.5455 0.500016M45.5227 45.5L0.499992 45.5M45.5227 45.5L45.5227 90.5M45.5227 45.5L90.5455 45.5M0.499992 45.5L0.499984 90.5M45.5227 90.5L0.499984 90.5M45.5227 90.5L45.5227 135.5M45.5227 90.5L90.5454 90.5M0.499984 90.5L0.499976 135.5M45.5227 135.5L0.499976 135.5M45.5227 135.5L45.5227 180.5M45.5227 135.5L90.5454 135.5M0.499976 135.5L0.499969 180.5M45.5227 180.5L0.499969 180.5M45.5227 180.5L45.5227 225.5M45.5227 180.5L90.5454 180.5M0.499969 180.5L0.499961 225.5M45.5227 225.5L0.499961 225.5M45.5227 225.5L45.5227 270.5M45.5227 225.5L90.5454 225.5M0.499961 225.5L0.499953 270.5M45.5227 270.5L0.499953 270.5M45.5227 270.5L45.5227 315.5M45.5227 270.5L90.5454 270.5M0.499953 270.5L0.499945 315.5M45.5227 315.5L0.499945 315.5M45.5227 315.5L45.5227 360.5M45.5227 315.5L90.5454 315.5M0.499945 315.5L0.499937 360.5M45.5227 360.5L0.499937 360.5M45.5227 360.5L45.5227 405.5M45.5227 360.5L90.5454 360.5M0.499937 360.5L0.499929 405.5M45.5227 405.5L0.499929 405.5M45.5227 405.5L45.5227 450.5M45.5227 405.5L90.5454 405.5M0.499929 405.5L0.499921 450.5M45.5227 450.5L0.499921 450.5M45.5227 450.5L45.5226 495.5M45.5227 450.5L90.5454 450.5M0.499921 450.5L0.499913 495.5M45.5226 495.5L0.499913 495.5M45.5226 495.5L45.5226 540.5M45.5226 495.5L90.5454 495.5M0.499913 495.5L0.499906 540.5M45.5226 540.5L0.499906 540.5M45.5226 540.5L45.5226 585.5M45.5226 540.5L90.5454 540.5M0.499906 540.5L0.499898 585.5M45.5226 585.5L0.499898 585.5M45.5226 585.5L45.5226 630.5M45.5226 585.5L90.5454 585.5M0.499898 585.5L0.49989 630.5M45.5226 630.5L0.49989 630.5M45.5226 630.5L45.5226 675.5M45.5226 630.5L90.5454 630.5M0.49989 630.5L0.499882 675.5M45.5226 675.5L0.499882 675.5M45.5226 675.5L45.5226 720.5M45.5226 675.5L90.5453 675.5M0.499882 675.5L0.499874 720.5M45.5226 720.5L0.499874 720.5M45.5226 720.5L45.5226 765.5M45.5226 720.5L90.5453 720.5M0.499874 720.5L0.499866 765.5M45.5226 765.5L0.499866 765.5M45.5226 765.5L45.5226 810.5M45.5226 765.5L90.5453 765.5M0.499866 765.5L0.499858 810.5M45.5226 810.5L0.499858 810.5M45.5226 810.5L45.5226 855.5M45.5226 810.5L90.5453 810.5M0.499858 810.5L0.499851 855.5M45.5226 855.5L0.499851 855.5M45.5226 855.5L45.5226 900.5M45.5226 855.5L90.5453 855.5M0.499851 855.5L0.499843 900.5L45.5226 900.5M45.5226 900.5L90.5453 900.5M90.5455 0.500016L90.5455 45.5M90.5455 0.500016L135.568 0.500024M90.5455 45.5L90.5454 90.5M90.5455 45.5L135.568 45.5M90.5454 90.5L90.5454 135.5M90.5454 90.5L135.568 90.5M90.5454 135.5L90.5454 180.5M90.5454 135.5L135.568 135.5M90.5454 180.5L90.5454 225.5M90.5454 180.5L135.568 180.5M90.5454 225.5L90.5454 270.5M90.5454 225.5L135.568 225.5M90.5454 270.5L90.5454 315.5M90.5454 270.5L135.568 270.5M90.5454 315.5L90.5454 360.5M90.5454 315.5L135.568 315.5M90.5454 360.5L90.5454 405.5M90.5454 360.5L135.568 360.5M90.5454 405.5L90.5454 450.5M90.5454 405.5L135.568 405.5M90.5454 450.5L90.5454 495.5M90.5454 450.5L135.568 450.5M90.5454 495.5L90.5454 540.5M90.5454 495.5L135.568 495.5M90.5454 540.5L90.5454 585.5M90.5454 540.5L135.568 540.5M90.5454 585.5L90.5454 630.5M90.5454 585.5L135.568 585.5M90.5454 630.5L90.5453 675.5M90.5454 630.5L135.568 630.5M90.5453 675.5L90.5453 720.5M90.5453 675.5L135.568 675.5M90.5453 720.5L90.5453 765.5M90.5453 720.5L135.568 720.5M90.5453 765.5L90.5453 810.5M90.5453 765.5L135.568 765.5M90.5453 810.5L90.5453 855.5M90.5453 810.5L135.568 810.5M90.5453 855.5L90.5453 900.5M90.5453 855.5L135.568 855.5M90.5453 900.5L135.568 900.5M135.568 0.500024L135.568 45.5M135.568 0.500024L180.591 0.500031M135.568 45.5L135.568 90.5M135.568 45.5L180.591 45.5M135.568 90.5L135.568 135.5M135.568 90.5L180.591 90.5M135.568 135.5L135.568 180.5M135.568 135.5L180.591 135.5M135.568 180.5L135.568 225.5M135.568 180.5L180.591 180.5M135.568 225.5L135.568 270.5M135.568 225.5L180.591 225.5M135.568 270.5L135.568 315.5M135.568 270.5L180.591 270.5M135.568 315.5L135.568 360.5M135.568 315.5L180.591 315.5M135.568 360.5L135.568 405.5M135.568 360.5L180.591 360.5M135.568 405.5L135.568 450.5M135.568 405.5L180.591 405.5M135.568 450.5L135.568 495.5M135.568 450.5L180.591 450.5M135.568 495.5L135.568 540.5M135.568 495.5L180.591 495.5M135.568 540.5L135.568 585.5M135.568 540.5L180.591 540.5M135.568 585.5L135.568 630.5M135.568 585.5L180.591 585.5M135.568 630.5L135.568 675.5M135.568 630.5L180.591 630.5M135.568 675.5L135.568 720.5M135.568 675.5L180.591 675.5M135.568 720.5L135.568 765.5M135.568 720.5L180.591 720.5M135.568 765.5L135.568 810.5M135.568 765.5L180.591 765.5M135.568 810.5L135.568 855.5M135.568 810.5L180.591 810.5M135.568 855.5L135.568 900.5M135.568 855.5L180.591 855.5M135.568 900.5L180.591 900.5M180.591 0.500031L180.591 45.5M180.591 0.500031L225.614 0.500039M180.591 45.5L180.591 90.5M180.591 45.5L225.614 45.5M180.591 90.5L180.591 135.5M180.591 90.5L225.614 90.5M180.591 135.5L180.591 180.5M180.591 135.5L225.614 135.5M180.591 180.5L180.591 225.5M180.591 180.5L225.614 180.5M180.591 225.5L180.591 270.5M180.591 225.5L225.614 225.5M180.591 270.5L180.591 315.5M180.591 270.5L225.614 270.5M180.591 315.5L180.591 360.5M180.591 315.5L225.614 315.5M180.591 360.5L180.591 405.5M180.591 360.5L225.614 360.5M180.591 405.5L180.591 450.5M180.591 405.5L225.614 405.5M180.591 450.5L180.591 495.5M180.591 450.5L225.614 450.5M180.591 495.5L180.591 540.5M180.591 495.5L225.614 495.5M180.591 540.5L180.591 585.5M180.591 540.5L225.614 540.5M180.591 585.5L180.591 630.5M180.591 585.5L225.614 585.5M180.591 630.5L180.591 675.5M180.591 630.5L225.614 630.5M180.591 675.5L180.591 720.5M180.591 675.5L225.614 675.5M180.591 720.5L180.591 765.5M180.591 720.5L225.614 720.5M180.591 765.5L180.591 810.5M180.591 765.5L225.614 765.5M180.591 810.5L180.591 855.5M180.591 810.5L225.614 810.5M180.591 855.5L180.591 900.5M180.591 855.5L225.613 855.5M180.591 900.5L225.613 900.5M225.614 0.500039L225.614 45.5M225.614 0.500039L270.636 0.500047M225.614 45.5L225.614 90.5M225.614 45.5L270.636 45.5M225.614 90.5L225.614 135.5M225.614 90.5L270.636 90.5M225.614 135.5L225.614 180.5M225.614 135.5L270.636 135.5M225.614 180.5L225.614 225.5M225.614 180.5L270.636 180.5M225.614 225.5L225.614 270.5M225.614 225.5L270.636 225.5M225.614 270.5L225.614 315.5M225.614 270.5L270.636 270.5M225.614 315.5L225.614 360.5M225.614 315.5L270.636 315.5M225.614 360.5L225.614 405.5M225.614 360.5L270.636 360.5M225.614 405.5L225.614 450.5M225.614 405.5L270.636 405.5M225.614 450.5L225.614 495.5M225.614 450.5L270.636 450.5M225.614 495.5L225.614 540.5M225.614 495.5L270.636 495.5M225.614 540.5L225.614 585.5M225.614 540.5L270.636 540.5M225.614 585.5L225.614 630.5M225.614 585.5L270.636 585.5M225.614 630.5L225.614 675.5M225.614 630.5L270.636 630.5M225.614 675.5L225.614 720.5M225.614 675.5L270.636 675.5M225.614 720.5L225.614 765.5M225.614 720.5L270.636 720.5M225.614 765.5L225.614 810.5M225.614 765.5L270.636 765.5M225.614 810.5L225.613 855.5M225.614 810.5L270.636 810.5M225.613 855.5L225.613 900.5M225.613 855.5L270.636 855.5M225.613 900.5L270.636 900.5M270.636 0.500047L270.636 45.5M270.636 0.500047L315.659 0.500055M270.636 45.5L270.636 90.5M270.636 45.5L315.659 45.5M270.636 90.5L270.636 135.5M270.636 90.5L315.659 90.5M270.636 135.5L270.636 180.5M270.636 135.5L315.659 135.5M270.636 180.5L270.636 225.5M270.636 180.5L315.659 180.5M270.636 225.5L270.636 270.5M270.636 225.5L315.659 225.5M270.636 270.5L270.636 315.5M270.636 270.5L315.659 270.5M270.636 315.5L270.636 360.5M270.636 315.5L315.659 315.5M270.636 360.5L270.636 405.5M270.636 360.5L315.659 360.5M270.636 405.5L270.636 450.5M270.636 405.5L315.659 405.5M270.636 450.5L270.636 495.5M270.636 450.5L315.659 450.5M270.636 495.5L270.636 540.5M270.636 495.5L315.659 495.5M270.636 540.5L270.636 585.5M270.636 540.5L315.659 540.5M270.636 585.5L270.636 630.5M270.636 585.5L315.659 585.5M270.636 630.5L270.636 675.5M270.636 630.5L315.659 630.5M270.636 675.5L270.636 720.5M270.636 675.5L315.659 675.5M270.636 720.5L270.636 765.5M270.636 720.5L315.659 720.5M270.636 765.5L270.636 810.5M270.636 765.5L315.659 765.5M270.636 810.5L270.636 855.5M270.636 810.5L315.659 810.5M270.636 855.5L270.636 900.5M270.636 855.5L315.659 855.5M270.636 900.5L315.659 900.5M315.659 0.500055L315.659 45.5M315.659 0.500055L360.682 0.500063M315.659 45.5L315.659 90.5M315.659 45.5L360.682 45.5M315.659 90.5L315.659 135.5M315.659 90.5L360.682 90.5M315.659 135.5L315.659 180.5M315.659 135.5L360.682 135.5M315.659 180.5L315.659 225.5M315.659 180.5L360.682 180.5M315.659 225.5L315.659 270.5M315.659 225.5L360.682 225.5M315.659 270.5L315.659 315.5M315.659 270.5L360.682 270.5M315.659 315.5L360.682 315.5M315.659 315.5L315.659 360.5M315.659 360.5L315.659 405.5M315.659 360.5L360.682 360.5M315.659 405.5L315.659 450.5M315.659 405.5L360.682 405.5M315.659 450.5L315.659 495.5M315.659 450.5L360.682 450.5M315.659 495.5L315.659 540.5M315.659 495.5L360.682 495.5M315.659 540.5L315.659 585.5M315.659 540.5L360.682 540.5M315.659 585.5L315.659 630.5M315.659 585.5L360.682 585.5M315.659 630.5L315.659 675.5M315.659 630.5L360.682 630.5M315.659 675.5L315.659 720.5M315.659 675.5L360.682 675.5M315.659 720.5L315.659 765.5M315.659 720.5L360.682 720.5M315.659 765.5L315.659 810.5M315.659 765.5L360.682 765.5M315.659 810.5L315.659 855.5M315.659 810.5L360.682 810.5M315.659 855.5L315.659 900.5M315.659 855.5L360.682 855.5M315.659 900.5L360.682 900.5M360.682 0.500063L360.682 45.5M360.682 0.500063L405.705 0.500071M360.682 45.5L360.682 90.5M360.682 45.5L405.705 45.5001M360.682 90.5L360.682 135.5M360.682 90.5L405.705 90.5M360.682 135.5L360.682 180.5M360.682 135.5L405.705 135.5M360.682 180.5L360.682 225.5M360.682 180.5L405.705 180.5M360.682 225.5L360.682 270.5M360.682 225.5L405.705 225.5M360.682 270.5L360.682 315.5M360.682 270.5L405.705 270.5M360.682 315.5L360.682 360.5M360.682 315.5L405.705 315.5M360.682 360.5L360.682 405.5M360.682 360.5L405.705 360.5M360.682 405.5L360.682 450.5M360.682 405.5L405.705 405.5M360.682 450.5L360.682 495.5M360.682 450.5L405.705 450.5M360.682 495.5L360.682 540.5M360.682 495.5L405.705 495.5M360.682 540.5L360.682 585.5M360.682 540.5L405.704 540.5M360.682 585.5L360.682 630.5M360.682 585.5C360.682 585.5 388.122 585.5 405.704 585.5M360.682 630.5L360.682 675.5M360.682 630.5L405.704 630.5M360.682 675.5L360.682 720.5M360.682 675.5L405.704 675.5M360.682 720.5L360.682 765.5M360.682 720.5L405.704 720.5M360.682 765.5L360.682 810.5M360.682 765.5L405.704 765.5M360.682 810.5L360.682 855.5M360.682 810.5L405.704 810.5M360.682 855.5L360.682 900.5M360.682 855.5L405.704 855.5M360.682 900.5L405.704 900.5M405.705 0.500071L405.705 45.5001M405.705 0.500071L450.727 0.500079M405.705 45.5001L405.705 90.5M405.705 45.5001L450.727 45.5001M405.705 90.5L405.705 135.5M405.705 90.5L450.727 90.5M405.705 135.5L405.705 180.5M405.705 135.5L450.727 135.5M405.705 180.5L405.705 225.5M405.705 180.5L450.727 180.5M405.705 225.5L405.705 270.5M405.705 225.5L450.727 225.5M405.705 270.5L405.705 315.5M405.705 270.5L450.727 270.5M405.705 315.5L405.705 360.5M405.705 315.5L450.727 315.5M405.705 360.5L405.705 405.5M405.705 360.5L450.727 360.5M405.705 405.5L405.705 450.5M405.705 405.5L450.727 405.5M405.705 450.5L405.705 495.5M405.705 450.5L450.727 450.5M405.705 495.5L405.704 540.5M405.705 495.5L450.727 495.5M405.704 540.5C405.704 540.5 405.704 567.926 405.704 585.5M405.704 540.5L450.727 540.5M405.704 585.5C405.704 603.073 405.704 630.5 405.704 630.5M405.704 585.5C423.287 585.5 450.727 585.5 450.727 585.5M405.704 630.5L405.704 675.5M405.704 630.5L450.727 630.5M405.704 675.5L405.704 720.5M405.704 675.5L450.727 675.5M405.704 720.5L405.704 765.5M405.704 720.5L450.727 720.5M405.704 765.5L405.704 810.5M405.704 765.5L450.727 765.5M405.704 810.5L405.704 855.5M405.704 810.5L450.727 810.5M405.704 855.5L405.704 900.5M405.704 855.5L450.727 855.5M405.704 900.5L450.727 900.5M450.727 0.500079L450.727 45.5001M450.727 0.500079L495.75 0.500087M450.727 45.5001L450.727 90.5M450.727 45.5001L495.75 45.5001M450.727 90.5L450.727 135.5M450.727 90.5L495.75 90.5M450.727 135.5L450.727 180.5M450.727 135.5L495.75 135.5M450.727 180.5L450.727 225.5M450.727 180.5L495.75 180.5M450.727 225.5L450.727 270.5M450.727 225.5L495.75 225.5M450.727 270.5L450.727 315.5M450.727 270.5L495.75 270.5M450.727 315.5L450.727 360.5M450.727 315.5L495.75 315.5M450.727 360.5L450.727 405.5M450.727 360.5L495.75 360.5M450.727 405.5L450.727 450.5M450.727 405.5L495.75 405.5M450.727 450.5L450.727 495.5M450.727 450.5L495.75 450.5M450.727 495.5L450.727 540.5M450.727 495.5L495.75 495.5M450.727 540.5L450.727 585.5M450.727 540.5L495.75 540.5M450.727 585.5L450.727 630.5M450.727 585.5L495.75 585.5M450.727 630.5L450.727 675.5M450.727 630.5L495.75 630.5M450.727 675.5L450.727 720.5M450.727 675.5L495.75 675.5M450.727 720.5L450.727 765.5M450.727 720.5L495.75 720.5M450.727 765.5L450.727 810.5M450.727 765.5L495.75 765.5M450.727 810.5L450.727 855.5M450.727 810.5L495.75 810.5M450.727 855.5L450.727 900.5M450.727 855.5L495.75 855.5M450.727 900.5L495.75 900.5M495.75 0.500087L495.75 45.5001M495.75 0.500087L540.773 0.500094M495.75 45.5001L495.75 90.5M495.75 45.5001L540.773 45.5001M495.75 90.5L495.75 135.5M495.75 90.5L540.773 90.5001M495.75 135.5L495.75 180.5M495.75 135.5L540.773 135.5M495.75 180.5L495.75 225.5M495.75 180.5L1486.25 180.5M495.75 225.5L495.75 270.5M495.75 225.5L1486.25 225.5M495.75 270.5L495.75 315.5M495.75 270.5L540.773 270.5M495.75 315.5L495.75 360.5M495.75 315.5L540.773 315.5M495.75 360.5L495.75 405.5M495.75 360.5L540.773 360.5M495.75 405.5L495.75 450.5M495.75 405.5L540.773 405.5M495.75 450.5L495.75 495.5M495.75 450.5L540.773 450.5M495.75 495.5L495.75 540.5M495.75 495.5L540.773 495.5M495.75 540.5L495.75 585.5M495.75 540.5L540.773 540.5M495.75 585.5L495.75 630.5M495.75 585.5L540.773 585.5M495.75 630.5L495.75 675.5M495.75 630.5L540.773 630.5M495.75 675.5L495.75 720.5M495.75 675.5L540.773 675.5M495.75 720.5L495.75 765.5M495.75 720.5L540.773 720.5M495.75 765.5L495.75 810.5M495.75 765.5L540.773 765.5M495.75 810.5L495.75 855.5M495.75 810.5L540.773 810.5M495.75 855.5L495.75 900.5M495.75 855.5L540.773 855.5M495.75 900.5L540.773 900.5M540.773 0.500094L540.773 45.5001M540.773 0.500094L585.795 0.500102M540.773 45.5001L540.773 90.5001M540.773 45.5001L585.795 45.5001M540.773 90.5001L540.773 135.5M540.773 90.5001L585.795 90.5001M540.773 135.5L585.795 135.5M540.773 135.5L540.773 270.5M540.773 270.5L540.773 315.5M540.773 270.5L585.795 270.5M540.773 315.5L540.773 360.5M540.773 315.5L585.795 315.5M540.773 360.5L540.773 405.5M540.773 360.5L585.795 360.5M540.773 405.5L540.773 450.5M540.773 405.5L585.795 405.5M540.773 450.5L540.773 495.5M540.773 450.5L585.795 450.5M540.773 495.5L540.773 540.5M540.773 495.5L585.795 495.5M540.773 540.5L540.773 585.5M540.773 540.5L585.795 540.5M540.773 585.5L540.773 630.5M540.773 585.5L585.795 585.5M540.773 630.5L540.773 675.5M540.773 630.5L585.795 630.5M540.773 675.5L540.773 720.5M540.773 675.5L585.795 675.5M540.773 720.5L540.773 765.5M540.773 720.5L585.795 720.5M540.773 765.5L540.773 810.5M540.773 765.5L585.795 765.5M540.773 810.5L540.773 855.5M540.773 810.5L585.795 810.5M540.773 855.5L540.773 900.5M540.773 855.5L585.795 855.5M540.773 900.5L585.795 900.5M585.795 0.500102L585.795 45.5001M585.795 0.500102L630.818 0.50011M585.795 45.5001L585.795 90.5001M585.795 45.5001L630.818 45.5001M585.795 90.5001L585.795 135.5M585.795 90.5001L630.818 90.5001M585.795 135.5L630.818 135.5M585.795 135.5L585.795 270.5M585.795 270.5L585.795 315.5M585.795 270.5L630.818 270.5M585.795 315.5L585.795 360.5M585.795 315.5L630.818 315.5M585.795 360.5L585.795 405.5M585.795 360.5L630.818 360.5M585.795 405.5L585.795 450.5M585.795 405.5L630.818 405.5M585.795 450.5L585.795 495.5M585.795 450.5L630.818 450.5M585.795 495.5L585.795 540.5M585.795 495.5L630.818 495.5M585.795 540.5L585.795 585.5M585.795 540.5L630.818 540.5M585.795 585.5L585.795 630.5M585.795 585.5L630.818 585.5M585.795 630.5L585.795 675.5M585.795 630.5L630.818 630.5M585.795 675.5L585.795 720.5M585.795 675.5L630.818 675.5M585.795 720.5L585.795 765.5M585.795 720.5L630.818 720.5M585.795 765.5L585.795 810.5M585.795 765.5L630.818 765.5M585.795 810.5L585.795 855.5M585.795 810.5L630.818 810.5M585.795 855.5L585.795 900.5M585.795 855.5L630.818 855.5M585.795 900.5L630.818 900.5M630.818 0.50011L630.818 45.5001M630.818 0.50011L675.841 0.500118M630.818 45.5001L630.818 90.5001M630.818 45.5001L675.841 45.5001M630.818 90.5001L630.818 135.5M630.818 90.5001L675.841 90.5001M630.818 135.5L675.841 135.5M630.818 135.5L630.818 270.5M630.818 270.5L630.818 315.5M630.818 270.5L1351.18 270.5M630.818 315.5L630.818 360.5M630.818 315.5L1351.18 315.5M630.818 360.5L630.818 405.5M630.818 360.5L675.841 360.5M630.818 405.5L630.818 450.5M630.818 405.5L675.841 405.5M630.818 450.5L630.818 495.5M630.818 450.5L675.841 450.5M630.818 495.5L630.818 540.5M630.818 495.5L675.841 495.5M630.818 540.5L630.818 585.5M630.818 540.5L675.841 540.5M630.818 585.5L630.818 630.5M630.818 585.5L675.841 585.5M630.818 630.5L630.818 675.5M630.818 630.5L675.841 630.5M630.818 675.5L630.818 720.5M630.818 675.5L675.841 675.5M630.818 720.5L630.818 765.5M630.818 720.5L675.841 720.5M630.818 765.5L630.818 810.5M630.818 765.5L675.841 765.5M630.818 810.5L630.818 855.5M630.818 810.5L675.841 810.5M630.818 855.5L630.818 900.5M630.818 855.5L675.841 855.5M630.818 900.5L675.841 900.5M675.841 0.500118L675.841 45.5001M675.841 0.500118L720.864 0.500126M675.841 45.5001L675.841 90.5001M675.841 45.5001L720.864 45.5001M675.841 90.5001L675.841 135.5M675.841 90.5001L720.864 90.5001M675.841 135.5L720.864 135.5M675.841 135.5L675.841 360.5M675.841 360.5L675.841 405.5M675.841 360.5L720.864 360.5M675.841 405.5L675.841 450.5M675.841 405.5L720.864 405.5M675.841 450.5L675.841 495.5M675.841 450.5L720.864 450.5M675.841 495.5L675.841 540.5M675.841 495.5L720.864 495.5M675.841 540.5L675.841 585.5M675.841 540.5L720.864 540.5M675.841 585.5L675.841 630.5M675.841 585.5L720.864 585.5M675.841 630.5L675.841 675.5M675.841 630.5L720.864 630.5M675.841 675.5L675.841 720.5M675.841 675.5L720.864 675.5M675.841 720.5L675.841 765.5M675.841 720.5L720.864 720.5M675.841 765.5L675.841 810.5M675.841 765.5L720.864 765.5M675.841 810.5L675.841 855.5M675.841 810.5L720.864 810.5M675.841 855.5L675.841 900.5M675.841 855.5L720.864 855.5M675.841 900.5L720.864 900.5M720.864 0.500126L720.864 45.5001M720.864 0.500126L765.886 0.500134M720.864 45.5001L720.864 90.5001M720.864 45.5001L765.886 45.5001M720.864 90.5001L720.864 135.5M720.864 90.5001L765.886 90.5001M720.864 135.5L765.886 135.5M720.864 135.5L720.864 360.5M720.864 360.5L720.864 405.5M720.864 360.5L765.886 360.5M720.864 405.5L720.864 450.5M720.864 405.5L765.886 405.5M720.864 450.5L720.864 495.5M720.864 450.5L765.886 450.5M720.864 495.5L720.864 540.5M720.864 495.5L765.886 495.5M720.864 540.5L720.864 585.5M720.864 540.5L765.886 540.5M720.864 585.5L720.864 630.5M720.864 585.5L765.886 585.5M720.864 630.5L720.864 675.5M720.864 630.5L765.886 630.5M720.864 675.5L720.864 720.5M720.864 675.5L765.886 675.5M720.864 720.5L720.864 765.5M720.864 720.5L765.886 720.5M720.864 765.5L720.864 810.5M720.864 765.5L765.886 765.5M720.864 810.5L720.864 855.5M720.864 810.5L765.886 810.5M720.864 855.5L720.864 900.5M720.864 855.5L765.886 855.5M720.864 900.5L765.886 900.5M765.886 0.500134L765.886 45.5001M765.886 0.500134L810.909 0.500142M765.886 45.5001L765.886 90.5001M765.886 45.5001L810.909 45.5001M765.886 90.5001L765.886 135.5M765.886 90.5001L810.909 90.5001M765.886 135.5L810.909 135.5M765.886 135.5L765.886 360.5M765.886 360.5L765.886 405.5M765.886 360.5L810.909 360.5M765.886 405.5L765.886 450.5M765.886 405.5L810.909 405.5M765.886 450.5L765.886 495.5M765.886 450.5L810.909 450.5M765.886 495.5L765.886 540.5M765.886 495.5L810.909 495.5M765.886 540.5L765.886 585.5M765.886 540.5L810.909 540.5M765.886 585.5L765.886 630.5M765.886 585.5L810.909 585.5M765.886 630.5L765.886 675.5M765.886 630.5L810.909 630.5M765.886 675.5L765.886 720.5M765.886 675.5L810.909 675.5M765.886 720.5L765.886 765.5M765.886 720.5L810.909 720.5M765.886 765.5L765.886 810.5M765.886 765.5L810.909 765.5M765.886 810.5L765.886 855.5M765.886 810.5L810.909 810.5M765.886 855.5L765.886 900.5M765.886 855.5L810.909 855.5M765.886 900.5L810.909 900.5M810.909 0.500142L810.909 45.5001M810.909 0.500142L855.932 0.50015M810.909 45.5001L810.909 90.5001M810.909 45.5001L855.932 45.5001M810.909 90.5001L810.909 135.5M810.909 90.5001L855.932 90.5001M810.909 135.5L855.932 135.5M810.909 135.5L810.909 360.5M810.909 360.5L810.909 405.5M810.909 360.5L855.932 360.5M810.909 405.5L810.909 450.5M810.909 405.5L855.932 405.5M810.909 450.5L810.909 495.5M810.909 450.5L855.932 450.5M810.909 495.5L810.909 540.5M810.909 495.5L855.932 495.5M810.909 540.5L810.909 585.5M810.909 540.5L855.932 540.5M810.909 585.5L810.909 630.5M810.909 585.5L855.932 585.5M810.909 630.5L810.909 675.5M810.909 630.5L855.932 630.5M810.909 675.5L810.909 720.5M810.909 675.5L855.932 675.5M810.909 720.5L810.909 765.5M810.909 720.5L855.932 720.5M810.909 765.5L810.909 810.5M810.909 765.5L855.932 765.5M810.909 810.5L810.909 855.5M810.909 810.5L855.932 810.5M810.909 855.5L810.909 900.5M810.909 855.5L855.932 855.5M810.909 900.5L855.932 900.5M855.932 0.50015L855.932 45.5001M855.932 0.50015L900.955 0.500157M855.932 45.5001L855.932 90.5001M855.932 45.5001L900.955 45.5001M855.932 90.5001L855.932 135.5M855.932 90.5001L900.955 90.5001M855.932 135.5L900.955 135.5M855.932 135.5L855.932 360.5M855.932 360.5L855.932 405.5M855.932 360.5L900.955 360.5M855.932 405.5L855.932 450.5M855.932 405.5L900.955 405.5M855.932 450.5L855.932 495.5M855.932 450.5L900.955 450.5M855.932 495.5L855.932 540.5M855.932 495.5L900.955 495.5M855.932 540.5L855.932 585.5M855.932 540.5L900.954 540.5M855.932 585.5L855.932 630.5M855.932 585.5L900.954 585.5M855.932 630.5L855.932 675.5M855.932 630.5L900.954 630.5M855.932 675.5L855.932 720.5M855.932 675.5L900.954 675.5M855.932 720.5L855.932 765.5M855.932 720.5L900.954 720.5M855.932 765.5L855.932 810.5M855.932 765.5L900.954 765.5M855.932 810.5L855.932 855.5M855.932 810.5L900.954 810.5M855.932 855.5L855.932 900.5M855.932 855.5L900.954 855.5M855.932 900.5L900.954 900.5M900.955 0.500157L900.955 45.5001M900.955 0.500157L945.977 0.500165M900.955 45.5001L900.955 90.5001M900.955 45.5001L945.977 45.5001M900.955 90.5001L900.955 135.5M900.955 90.5001L945.977 90.5001M900.955 135.5L945.977 135.5M900.955 135.5L900.955 360.5M900.955 360.5L900.955 405.5M900.955 360.5L945.977 360.5M900.955 405.5L900.955 450.5M900.955 405.5L945.977 405.5M900.955 450.5L900.955 495.5M900.955 450.5L945.977 450.5M900.955 495.5L900.954 540.5M900.955 495.5L945.977 495.5M900.954 540.5L900.954 585.5M900.954 540.5L945.977 540.5M900.954 585.5L900.954 630.5M900.954 585.5L945.977 585.5M900.954 630.5L900.954 675.5M900.954 630.5L945.977 630.5M900.954 675.5L900.954 720.5M900.954 675.5L945.977 675.5M900.954 720.5L900.954 765.5M900.954 720.5L945.977 720.5M900.954 765.5L900.954 810.5M900.954 765.5L945.977 765.5M900.954 810.5L900.954 855.5M900.954 810.5L945.977 810.5M900.954 855.5L900.954 900.5M900.954 855.5L945.977 855.5M900.954 900.5L945.977 900.5M945.977 0.500165L945.977 45.5001M945.977 0.500165L991 0.500173M945.977 45.5001L991 45.5002M945.977 45.5001L945.977 90.5001M945.977 90.5001L945.977 135.5M945.977 90.5001L991 90.5001M945.977 135.5L991 135.5M945.977 135.5L945.977 360.5M945.977 360.5L945.977 405.5M945.977 360.5L991 360.5M945.977 405.5L945.977 450.5M945.977 405.5L991 405.5M945.977 450.5L945.977 495.5M945.977 450.5L991 450.5M945.977 495.5L945.977 540.5M945.977 495.5L991 495.5M945.977 540.5L945.977 585.5M945.977 540.5L991 540.5M945.977 585.5L945.977 630.5M945.977 585.5L991 585.5M945.977 630.5L945.977 675.5M945.977 630.5L991 630.5M945.977 675.5L945.977 720.5M945.977 675.5L991 675.5M945.977 720.5L945.977 765.5M945.977 720.5L991 720.5M945.977 765.5L945.977 810.5M945.977 765.5L991 765.5M945.977 810.5L945.977 855.5M945.977 810.5L991 810.5M945.977 855.5L945.977 900.5M945.977 855.5L991 855.5M945.977 900.5L991 900.5M991 0.500173L991 45.5002M991 0.500173L1036.02 0.500181M991 45.5002L1036.02 45.5002M991 45.5002L991 90.5001M991 90.5001L991 135.5M991 90.5001L1036.02 90.5001M991 135.5L1036.02 135.5M991 135.5L991 360.5M991 360.5L991 405.5M991 360.5L1036.02 360.5M991 405.5L991 450.5M991 405.5L1036.02 405.5M991 450.5L991 495.5M991 450.5L1036.02 450.5M991 495.5L991 540.5M991 495.5L1036.02 495.5M991 540.5L991 585.5M991 540.5L1036.02 540.5M991 585.5L991 630.5M991 585.5L1036.02 585.5M991 630.5L991 675.5M991 630.5L1036.02 630.5M991 675.5L991 720.5M991 675.5L1036.02 675.5M991 720.5L991 765.5M991 720.5L1036.02 720.5M991 765.5L991 810.5M991 765.5L1036.02 765.5M991 810.5L991 855.5M991 810.5L1036.02 810.5M991 855.5L991 900.5M991 855.5L1036.02 855.5M991 900.5L1036.02 900.5M1036.02 0.500181L1036.02 45.5002M1036.02 0.500181L1081.05 0.500189M1036.02 45.5002L1081.05 45.5002M1036.02 45.5002L1036.02 90.5001M1036.02 90.5001L1036.02 135.5M1036.02 90.5001L1081.05 90.5002M1036.02 135.5L1081.05 135.5M1036.02 135.5L1036.02 360.5M1036.02 360.5L1036.02 405.5M1036.02 360.5L1081.05 360.5M1036.02 405.5L1036.02 450.5M1036.02 405.5L1081.05 405.5M1036.02 450.5L1036.02 495.5M1036.02 450.5L1081.05 450.5M1036.02 495.5L1036.02 540.5M1036.02 495.5L1081.05 495.5M1036.02 540.5L1036.02 585.5M1036.02 540.5L1081.05 540.5M1036.02 585.5L1036.02 630.5M1036.02 585.5L1081.05 585.5M1036.02 630.5L1036.02 675.5M1036.02 630.5L1081.05 630.5M1036.02 675.5L1036.02 720.5M1036.02 675.5L1081.05 675.5M1036.02 720.5L1036.02 765.5M1036.02 720.5L1081.05 720.5M1036.02 765.5L1036.02 810.5M1036.02 765.5L1081.05 765.5M1036.02 810.5L1036.02 855.5M1036.02 810.5L1081.05 810.5M1036.02 855.5L1036.02 900.5M1036.02 855.5L1081.05 855.5M1036.02 900.5L1081.05 900.5M1081.05 0.500189L1081.05 45.5002M1081.05 0.500189L1126.07 0.500197M1081.05 45.5002L1126.07 45.5002M1081.05 45.5002L1081.05 90.5002M1081.05 90.5002L1081.05 135.5M1081.05 90.5002L1126.07 90.5002M1081.05 135.5L1126.07 135.5M1081.05 135.5L1081.05 360.5M1081.05 360.5L1081.05 405.5M1081.05 360.5L1126.07 360.5M1081.05 405.5L1081.05 450.5M1081.05 405.5L1126.07 405.5M1081.05 450.5L1081.05 495.5M1081.05 450.5L1126.07 450.5M1081.05 495.5L1081.05 540.5M1081.05 495.5L1126.07 495.5M1081.05 540.5L1081.05 585.5M1081.05 540.5L1126.07 540.5M1081.05 585.5L1081.05 630.5M1081.05 585.5L1126.07 585.5M1081.05 630.5L1081.05 675.5M1081.05 630.5L1126.07 630.5M1081.05 675.5L1081.05 720.5M1081.05 675.5L1126.07 675.5M1081.05 720.5L1081.05 765.5M1081.05 720.5L1126.07 720.5M1081.05 765.5L1081.05 810.5M1081.05 765.5L1126.07 765.5M1081.05 810.5L1081.05 855.5M1081.05 810.5L1126.07 810.5M1081.05 855.5L1081.05 900.5M1081.05 855.5L1126.07 855.5M1081.05 900.5L1126.07 900.5M1126.07 0.500197L1126.07 45.5002M1126.07 0.500197L1171.09 0.500205M1126.07 45.5002L1126.07 90.5002M1126.07 45.5002L1171.09 45.5002M1126.07 90.5002L1126.07 135.5M1126.07 90.5002L1171.09 90.5002M1126.07 135.5L1171.09 135.5M1126.07 135.5L1126.07 360.5M1126.07 360.5L1126.07 405.5M1126.07 360.5L1171.09 360.5M1126.07 405.5L1126.07 450.5M1126.07 405.5L1171.09 405.5M1126.07 450.5L1126.07 495.5M1126.07 450.5L1171.09 450.5M1126.07 495.5L1126.07 540.5M1126.07 495.5L1171.09 495.5M1126.07 540.5L1126.07 585.5M1126.07 540.5L1171.09 540.5M1126.07 585.5L1126.07 630.5M1126.07 585.5L1171.09 585.5M1126.07 630.5L1126.07 675.5M1126.07 630.5L1171.09 630.5M1126.07 675.5L1126.07 720.5M1126.07 675.5L1171.09 675.5M1126.07 720.5L1126.07 765.5M1126.07 720.5L1171.09 720.5M1126.07 765.5L1126.07 810.5M1126.07 765.5L1171.09 765.5M1126.07 810.5L1126.07 855.5M1126.07 810.5L1171.09 810.5M1126.07 855.5L1126.07 900.5M1126.07 855.5L1171.09 855.5M1126.07 900.5L1171.09 900.5M1171.09 0.500205L1171.09 45.5002M1171.09 0.500205L1216.11 0.500213M1171.09 45.5002L1171.09 90.5002M1171.09 45.5002L1216.11 45.5002M1171.09 90.5002L1171.09 135.5M1171.09 90.5002L1216.11 90.5002M1171.09 135.5L1216.11 135.5M1171.09 135.5L1171.09 360.5M1171.09 360.5L1171.09 405.5M1171.09 360.5L1216.11 360.5M1171.09 405.5L1171.09 450.5M1171.09 405.5L1216.11 405.5M1171.09 450.5L1171.09 495.5M1171.09 450.5L1216.11 450.5M1171.09 495.5L1171.09 540.5M1171.09 495.5L1216.11 495.5M1171.09 540.5L1171.09 585.5M1171.09 540.5L1216.11 540.5M1171.09 585.5L1171.09 630.5M1171.09 585.5L1216.11 585.5M1171.09 630.5L1171.09 675.5M1171.09 630.5L1216.11 630.5M1171.09 675.5L1171.09 720.5M1171.09 675.5L1216.11 675.5M1171.09 720.5L1171.09 765.5M1171.09 720.5L1216.11 720.5M1171.09 765.5L1171.09 810.5M1171.09 765.5L1216.11 765.5M1171.09 810.5L1171.09 855.5M1171.09 810.5L1216.11 810.5M1171.09 855.5L1171.09 900.5M1171.09 855.5L1216.11 855.5M1171.09 900.5L1216.11 900.5M1216.11 0.500213L1216.11 45.5002M1216.11 0.500213L1261.14 0.50022M1216.11 45.5002L1216.11 90.5002M1216.11 45.5002L1261.14 45.5002M1216.11 90.5002L1216.11 135.5M1216.11 90.5002L1261.14 90.5002M1216.11 135.5L1261.14 135.5M1216.11 135.5L1216.11 360.5M1216.11 360.5L1216.11 405.5M1216.11 360.5L1261.14 360.5M1216.11 405.5L1216.11 450.5M1216.11 405.5L1261.14 405.5M1216.11 450.5L1216.11 495.5M1216.11 450.5L1261.14 450.5M1216.11 495.5L1216.11 540.5M1216.11 495.5L1261.14 495.5M1216.11 540.5L1216.11 585.5M1216.11 540.5L1261.14 540.5M1216.11 585.5L1216.11 630.5M1216.11 585.5L1261.14 585.5M1216.11 630.5L1216.11 675.5M1216.11 630.5L1261.14 630.5M1216.11 675.5L1216.11 720.5M1216.11 675.5L1261.14 675.5M1216.11 720.5L1216.11 765.5M1216.11 720.5L1261.14 720.5M1216.11 765.5L1216.11 810.5M1216.11 765.5L1261.14 765.5M1216.11 810.5L1216.11 855.5M1216.11 810.5L1261.14 810.5M1216.11 855.5L1216.11 900.5M1216.11 855.5L1261.14 855.5M1216.11 900.5L1261.14 900.5M1261.14 0.50022L1261.14 45.5002M1261.14 0.50022L1306.16 0.500228M1261.14 45.5002L1261.14 90.5002M1261.14 45.5002L1306.16 45.5002M1261.14 90.5002L1261.14 135.5M1261.14 90.5002L1306.16 90.5002M1261.14 135.5L1306.16 135.5M1261.14 135.5L1261.14 360.5M1261.14 360.5L1261.14 405.5M1261.14 360.5L1306.16 360.5M1261.14 405.5L1261.14 450.5M1261.14 405.5L1306.16 405.5M1261.14 450.5L1261.14 495.5M1261.14 450.5L1306.16 450.5M1261.14 495.5L1261.14 540.5M1261.14 495.5L1306.16 495.5M1261.14 540.5L1261.14 585.5M1261.14 540.5L1306.16 540.5M1261.14 585.5L1261.14 630.5M1261.14 585.5L1306.16 585.5M1261.14 630.5L1261.14 675.5M1261.14 630.5L1306.16 630.5M1261.14 675.5L1261.14 720.5M1261.14 675.5L1306.16 675.5M1261.14 720.5L1261.14 765.5M1261.14 720.5L1306.16 720.5M1261.14 765.5L1261.14 810.5M1261.14 765.5L1306.16 765.5M1261.14 810.5L1261.14 855.5M1261.14 810.5L1306.16 810.5M1261.14 855.5L1261.14 900.5M1261.14 855.5L1306.16 855.5M1261.14 900.5L1306.16 900.5M1306.16 0.500228L1306.16 45.5002M1306.16 0.500228L1351.18 0.500236M1306.16 45.5002L1306.16 90.5002M1306.16 45.5002L1351.18 45.5002M1306.16 90.5002L1306.16 135.5M1306.16 90.5002L1351.18 90.5002M1306.16 135.5L1351.18 135.5M1306.16 135.5L1306.16 360.5M1306.16 360.5L1306.16 405.5M1306.16 360.5L1351.18 360.5M1306.16 405.5L1306.16 450.5M1306.16 405.5L1351.18 405.5M1306.16 450.5L1306.16 495.5M1306.16 450.5L1351.18 450.5M1306.16 495.5L1306.16 540.5M1306.16 495.5L1351.18 495.5M1306.16 540.5L1306.16 585.5M1306.16 540.5L1351.18 540.5M1306.16 585.5L1306.16 630.5M1306.16 585.5L1351.18 585.5M1306.16 630.5L1306.16 675.5M1306.16 630.5L1351.18 630.5M1306.16 675.5L1306.16 720.5M1306.16 675.5L1351.18 675.5M1306.16 720.5L1306.16 765.5M1306.16 720.5L1351.18 720.5M1306.16 765.5L1306.16 810.5M1306.16 765.5L1351.18 765.5M1306.16 810.5L1306.16 855.5M1306.16 810.5L1351.18 810.5M1306.16 855.5L1306.16 900.5M1306.16 855.5L1351.18 855.5M1306.16 900.5L1351.18 900.5M1351.18 0.500236L1351.18 45.5002M1351.18 0.500236L1396.2 0.500244M1351.18 45.5002L1351.18 90.5002M1351.18 45.5002L1396.2 45.5002M1351.18 90.5002L1351.18 135.5M1351.18 90.5002L1396.2 90.5002M1351.18 135.5L1396.2 135.5M1351.18 135.5L1351.18 270.5M1351.18 270.5L1351.18 315.5M1351.18 270.5L1396.2 270.5M1351.18 315.5L1351.18 360.5M1351.18 315.5L1396.2 315.5M1351.18 360.5L1351.18 405.5M1351.18 360.5L1396.2 360.5M1351.18 405.5L1351.18 450.5M1351.18 405.5L1396.2 405.5M1351.18 450.5L1351.18 495.5M1351.18 450.5L1396.2 450.5M1351.18 495.5L1351.18 540.5M1351.18 495.5L1396.2 495.5M1351.18 540.5L1351.18 585.5M1351.18 540.5L1396.2 540.5M1351.18 585.5L1351.18 630.5M1351.18 585.5L1396.2 585.5M1351.18 630.5L1351.18 675.5M1351.18 630.5L1396.2 630.5M1351.18 675.5L1351.18 720.5M1351.18 675.5L1396.2 675.5M1351.18 720.5L1351.18 765.5M1351.18 720.5L1396.2 720.5M1351.18 765.5L1351.18 810.5M1351.18 765.5L1396.2 765.5M1351.18 810.5L1351.18 855.5M1351.18 810.5L1396.2 810.5M1351.18 855.5L1351.18 900.5M1351.18 855.5L1396.2 855.5M1351.18 900.5L1396.2 900.5M1396.2 0.500244L1396.2 45.5002M1396.2 0.500244L1441.23 0.500252M1396.2 45.5002L1396.2 90.5002M1396.2 45.5002L1441.23 45.5002M1396.2 90.5002L1396.2 135.5M1396.2 90.5002L1441.23 90.5002M1396.2 135.5L1441.23 135.5M1396.2 135.5L1396.2 270.5M1396.2 270.5L1396.2 315.5M1396.2 270.5L1441.23 270.5M1396.2 315.5L1396.2 360.5M1396.2 315.5L1441.23 315.5M1396.2 360.5L1396.2 405.5M1396.2 360.5L1441.23 360.5M1396.2 405.5L1396.2 450.5M1396.2 405.5L1441.23 405.5M1396.2 450.5L1396.2 495.5M1396.2 450.5L1441.23 450.5M1396.2 495.5L1396.2 540.5M1396.2 495.5L1441.23 495.5M1396.2 540.5L1396.2 585.5M1396.2 540.5L1441.23 540.5M1396.2 585.5L1396.2 630.5M1396.2 585.5L1441.23 585.5M1396.2 630.5L1396.2 675.5M1396.2 630.5L1441.23 630.5M1396.2 675.5L1396.2 720.5M1396.2 675.5L1441.23 675.5M1396.2 720.5L1396.2 765.5M1396.2 720.5L1441.23 720.5M1396.2 765.5L1396.2 810.5M1396.2 765.5L1441.23 765.5M1396.2 810.5L1396.2 855.5M1396.2 810.5L1441.23 810.5M1396.2 855.5L1396.2 900.5M1396.2 855.5L1441.23 855.5M1396.2 900.5L1441.23 900.5M1441.23 0.500252L1441.23 45.5002M1441.23 0.500252L1486.25 0.50026M1441.23 45.5002L1441.23 90.5002M1441.23 45.5002L1486.25 45.5002M1441.23 90.5002L1441.23 135.5M1441.23 90.5002L1486.25 90.5002M1441.23 135.5L1486.25 135.5M1441.23 135.5L1441.23 270.5M1441.23 270.5L1441.23 315.5M1441.23 270.5L1486.25 270.5M1441.23 315.5L1441.23 360.5M1441.23 315.5L1486.25 315.5M1441.23 360.5L1441.23 405.5M1441.23 360.5L1486.25 360.5M1441.23 405.5L1441.23 450.5M1441.23 405.5L1486.25 405.5M1441.23 450.5L1441.23 495.5M1441.23 450.5L1486.25 450.5M1441.23 495.5L1441.23 540.5M1441.23 495.5L1486.25 495.5M1441.23 540.5L1441.23 585.5M1441.23 540.5L1486.25 540.5M1441.23 585.5L1441.23 630.5M1441.23 585.5L1486.25 585.5M1441.23 630.5L1441.23 675.5M1441.23 630.5L1486.25 630.5M1441.23 675.5L1441.23 720.5M1441.23 675.5L1486.25 675.5M1441.23 720.5L1441.23 765.5M1441.23 720.5L1486.25 720.5M1441.23 765.5L1441.23 810.5M1441.23 765.5L1486.25 765.5M1441.23 810.5L1441.23 855.5M1441.23 810.5L1486.25 810.5M1441.23 855.5L1441.23 900.5M1441.23 855.5L1486.25 855.5M1441.23 900.5L1486.25 900.5M1486.25 0.50026L1486.25 45.5002M1486.25 0.50026L1531.27 0.500268M1486.25 45.5002L1486.25 90.5002M1486.25 45.5002L1531.27 45.5002M1486.25 90.5002L1486.25 135.5M1486.25 90.5002L1531.27 90.5002M1486.25 135.5L1486.25 180.5M1486.25 135.5L1531.27 135.5M1486.25 180.5L1486.25 225.5M1486.25 180.5L1531.27 180.5M1486.25 225.5L1486.25 270.5M1486.25 225.5L1531.27 225.5M1486.25 270.5L1486.25 315.5M1486.25 270.5L1531.27 270.5M1486.25 315.5L1486.25 360.5M1486.25 315.5L1531.27 315.5M1486.25 360.5L1486.25 405.5M1486.25 360.5L1531.27 360.5M1486.25 405.5L1486.25 450.5M1486.25 405.5L1531.27 405.5M1486.25 450.5L1486.25 495.5M1486.25 450.5L1531.27 450.5M1486.25 495.5L1486.25 540.5M1486.25 495.5L1531.27 495.5M1486.25 540.5L1486.25 585.5M1486.25 540.5L1531.27 540.5M1486.25 585.5L1486.25 630.5M1486.25 585.5L1531.27 585.5M1486.25 630.5L1486.25 675.5M1486.25 630.5L1531.27 630.5M1486.25 675.5L1486.25 720.5M1486.25 675.5L1531.27 675.5M1486.25 720.5L1486.25 765.5M1486.25 720.5L1531.27 720.5M1486.25 765.5L1486.25 810.5M1486.25 765.5L1531.27 765.5M1486.25 810.5L1486.25 855.5M1486.25 810.5L1531.27 810.5M1486.25 855.5L1486.25 900.5M1486.25 855.5L1531.27 855.5M1486.25 900.5L1531.27 900.5M1531.27 0.500268L1531.27 45.5002M1531.27 0.500268L1576.3 0.500276M1531.27 45.5002L1531.27 90.5002M1531.27 45.5002L1576.3 45.5003M1531.27 90.5002L1531.27 135.5M1531.27 90.5002L1576.3 90.5002M1531.27 135.5L1531.27 180.5M1531.27 135.5L1576.3 135.5M1531.27 180.5L1531.27 225.5M1531.27 180.5L1576.3 180.5M1531.27 225.5L1531.27 270.5M1531.27 225.5L1576.3 225.5M1531.27 270.5L1531.27 315.5M1531.27 270.5L1576.3 270.5M1531.27 315.5L1531.27 360.5M1531.27 315.5L1576.3 315.5M1531.27 360.5L1531.27 405.5M1531.27 360.5L1576.3 360.5M1531.27 405.5L1531.27 450.5M1531.27 405.5L1576.3 405.5M1531.27 450.5L1531.27 495.5M1531.27 450.5L1576.3 450.5M1531.27 495.5L1531.27 540.5M1531.27 495.5L1576.3 495.5M1531.27 540.5L1531.27 585.5M1531.27 540.5L1576.3 540.5M1531.27 585.5L1531.27 630.5M1531.27 585.5L1576.3 585.5M1531.27 630.5L1531.27 675.5M1531.27 630.5L1576.3 630.5M1531.27 675.5L1531.27 720.5M1531.27 675.5L1576.3 675.5M1531.27 720.5L1531.27 765.5M1531.27 720.5L1576.3 720.5M1531.27 765.5L1531.27 810.5M1531.27 765.5L1576.3 765.5M1531.27 810.5L1531.27 855.5M1531.27 810.5L1576.3 810.5M1531.27 855.5L1531.27 900.5M1531.27 855.5L1576.3 855.5M1531.27 900.5L1576.3 900.5M1576.3 0.500276L1576.3 45.5003M1576.3 0.500276L1621.32 0.500283M1576.3 45.5003L1576.3 90.5002M1576.3 45.5003L1621.32 45.5003M1576.3 90.5002L1576.3 135.5M1576.3 90.5002L1621.32 90.5002M1576.3 135.5L1576.3 180.5M1576.3 135.5L1621.32 135.5M1576.3 180.5L1576.3 225.5M1576.3 180.5L1621.32 180.5M1576.3 225.5L1576.3 270.5M1576.3 225.5L1621.32 225.5M1576.3 270.5L1576.3 315.5M1576.3 270.5L1621.32 270.5M1576.3 315.5L1576.3 360.5M1576.3 315.5L1621.32 315.5M1576.3 360.5L1576.3 405.5M1576.3 360.5L1621.32 360.5M1576.3 405.5L1576.3 450.5M1576.3 405.5L1621.32 405.5M1576.3 450.5L1576.3 495.5M1576.3 450.5L1621.32 450.5M1576.3 495.5L1576.3 540.5M1576.3 495.5L1621.32 495.5M1576.3 540.5L1576.3 585.5M1576.3 540.5L1621.32 540.5M1576.3 585.5L1576.3 630.5M1576.3 585.5L1621.32 585.5M1576.3 630.5L1576.3 675.5M1576.3 630.5L1621.32 630.5M1576.3 675.5L1576.3 720.5M1576.3 675.5L1621.32 675.5M1576.3 720.5L1576.3 765.5M1576.3 720.5L1621.32 720.5M1576.3 765.5L1576.3 810.5M1576.3 765.5L1621.32 765.5M1576.3 810.5L1576.3 855.5M1576.3 810.5L1621.32 810.5M1576.3 855.5L1576.3 900.5M1576.3 855.5L1621.32 855.5M1576.3 900.5L1621.32 900.5M1621.32 0.500283L1621.32 45.5003M1621.32 0.500283L1666.34 0.500291M1621.32 45.5003L1621.32 90.5002M1621.32 45.5003L1666.34 45.5003M1621.32 90.5002L1621.32 135.5M1621.32 90.5002L1666.34 90.5003M1621.32 135.5L1621.32 180.5M1621.32 135.5L1666.34 135.5M1621.32 180.5L1621.32 225.5M1621.32 180.5L1666.34 180.5M1621.32 225.5L1621.32 270.5M1621.32 225.5L1666.34 225.5M1621.32 270.5L1621.32 315.5M1621.32 270.5L1666.34 270.5M1621.32 315.5L1621.32 360.5M1621.32 315.5L1666.34 315.5M1621.32 360.5L1621.32 405.5M1621.32 360.5L1666.34 360.5M1621.32 405.5L1621.32 450.5M1621.32 405.5L1666.34 405.5M1621.32 450.5L1621.32 495.5M1621.32 450.5L1666.34 450.5M1621.32 495.5L1621.32 540.5M1621.32 495.5L1666.34 495.5M1621.32 540.5L1621.32 585.5M1621.32 540.5L1666.34 540.5M1621.32 585.5L1621.32 630.5M1621.32 585.5L1666.34 585.5M1621.32 630.5L1621.32 675.5M1621.32 630.5L1666.34 630.5M1621.32 675.5L1621.32 720.5M1621.32 675.5L1666.34 675.5M1621.32 720.5L1621.32 765.5M1621.32 720.5L1666.34 720.5M1621.32 765.5L1621.32 810.5M1621.32 765.5L1666.34 765.5M1621.32 810.5L1621.32 855.5M1621.32 810.5L1666.34 810.5M1621.32 855.5L1621.32 900.5M1621.32 855.5L1666.34 855.5M1621.32 900.5L1666.34 900.5M1666.34 0.500291L1666.34 45.5003M1666.34 0.500291L1711.36 0.500299M1666.34 45.5003L1666.34 90.5003M1666.34 45.5003L1711.36 45.5003M1666.34 90.5003L1666.34 135.5M1666.34 90.5003L1711.36 90.5003M1666.34 135.5L1666.34 180.5M1666.34 135.5L1711.36 135.5M1666.34 180.5L1666.34 225.5M1666.34 180.5L1711.36 180.5M1666.34 225.5L1666.34 270.5M1666.34 225.5L1711.36 225.5M1666.34 270.5L1666.34 315.5M1666.34 270.5L1711.36 270.5M1666.34 315.5L1711.36 315.5M1666.34 315.5L1666.34 360.5M1666.34 360.5L1666.34 405.5M1666.34 360.5L1711.36 360.5M1666.34 405.5L1666.34 450.5M1666.34 405.5L1711.36 405.5M1666.34 450.5L1666.34 495.5M1666.34 450.5L1711.36 450.5M1666.34 495.5L1666.34 540.5M1666.34 495.5L1711.36 495.5M1666.34 540.5L1666.34 585.5M1666.34 540.5L1711.36 540.5M1666.34 585.5L1666.34 630.5M1666.34 585.5L1711.36 585.5M1666.34 630.5L1666.34 675.5M1666.34 630.5L1711.36 630.5M1666.34 675.5L1666.34 720.5M1666.34 675.5L1711.36 675.5M1666.34 720.5L1666.34 765.5M1666.34 720.5L1711.36 720.5M1666.34 765.5L1666.34 810.5M1666.34 765.5L1711.36 765.5M1666.34 810.5L1666.34 855.5M1666.34 810.5L1711.36 810.5M1666.34 855.5L1666.34 900.5M1666.34 855.5L1711.36 855.5M1666.34 900.5L1711.36 900.5M1711.36 0.500299L1711.36 45.5003M1711.36 0.500299L1756.39 0.500307M1711.36 45.5003L1711.36 90.5003M1711.36 45.5003L1756.39 45.5003M1711.36 90.5003L1711.36 135.5M1711.36 90.5003L1756.39 90.5003M1711.36 135.5L1711.36 180.5M1711.36 135.5L1756.39 135.5M1711.36 180.5L1711.36 225.5M1711.36 180.5L1756.39 180.5M1711.36 225.5L1711.36 270.5M1711.36 225.5L1756.39 225.5M1711.36 270.5L1711.36 315.5M1711.36 270.5L1756.39 270.5M1711.36 315.5L1711.36 360.5M1711.36 315.5L1756.39 315.5M1711.36 360.5L1711.36 405.5M1711.36 360.5L1756.39 360.5M1711.36 405.5L1711.36 450.5M1711.36 405.5L1756.39 405.5M1711.36 450.5L1711.36 495.5M1711.36 450.5L1756.39 450.5M1711.36 495.5L1711.36 540.5M1711.36 495.5L1756.39 495.5M1711.36 540.5L1711.36 585.5M1711.36 540.5L1756.39 540.5M1711.36 585.5L1711.36 630.5M1711.36 585.5L1756.39 585.5M1711.36 630.5L1711.36 675.5M1711.36 630.5L1756.39 630.5M1711.36 675.5L1711.36 720.5M1711.36 675.5L1756.39 675.5M1711.36 720.5L1711.36 765.5M1711.36 720.5L1756.39 720.5M1711.36 765.5L1711.36 810.5M1711.36 765.5L1756.39 765.5M1711.36 810.5L1711.36 855.5M1711.36 810.5L1756.39 810.5M1711.36 855.5L1711.36 900.5M1711.36 855.5L1756.39 855.5M1711.36 900.5L1756.39 900.5M1756.39 0.500307L1756.39 45.5003M1756.39 0.500307L1801.41 0.500315M1756.39 45.5003L1756.39 90.5003M1756.39 45.5003L1801.41 45.5003M1756.39 90.5003L1756.39 135.5M1756.39 90.5003L1801.41 90.5003M1756.39 135.5L1756.39 180.5M1756.39 135.5L1801.41 135.5M1756.39 180.5L1756.39 225.5M1756.39 180.5L1801.41 180.5M1756.39 225.5L1756.39 270.5M1756.39 225.5L1801.41 225.5M1756.39 270.5L1756.39 315.5M1756.39 270.5L1801.41 270.5M1756.39 315.5L1756.39 360.5M1756.39 315.5L1801.41 315.5M1756.39 360.5L1756.39 405.5M1756.39 360.5L1801.41 360.5M1756.39 405.5L1756.39 450.5M1756.39 405.5L1801.41 405.5M1756.39 450.5L1756.39 495.5M1756.39 450.5L1801.41 450.5M1756.39 495.5L1756.39 540.5M1756.39 495.5L1801.41 495.5M1756.39 540.5L1756.39 585.5M1756.39 540.5L1801.41 540.5M1756.39 585.5L1756.39 630.5M1756.39 585.5L1801.41 585.5M1756.39 630.5L1756.39 675.5M1756.39 630.5L1801.41 630.5M1756.39 675.5L1756.39 720.5M1756.39 675.5L1801.41 675.5M1756.39 720.5L1756.39 765.5M1756.39 720.5L1801.41 720.5M1756.39 765.5L1756.39 810.5M1756.39 765.5L1801.41 765.5M1756.39 810.5L1756.39 855.5M1756.39 810.5L1801.41 810.5M1756.39 855.5L1756.39 900.5M1756.39 855.5L1801.41 855.5M1756.39 900.5L1801.41 900.5M1801.41 0.500315L1801.41 45.5003M1801.41 0.500315L1846.43 0.500323M1801.41 45.5003L1801.41 90.5003M1801.41 45.5003L1846.43 45.5003M1801.41 90.5003L1801.41 135.5M1801.41 90.5003L1846.43 90.5003M1801.41 135.5L1801.41 180.5M1801.41 135.5L1846.43 135.5M1801.41 180.5L1801.41 225.5M1801.41 180.5L1846.43 180.5M1801.41 225.5L1801.41 270.5M1801.41 225.5L1846.43 225.5M1801.41 270.5L1801.41 315.5M1801.41 270.5L1846.43 270.5M1801.41 315.5L1801.41 360.5M1801.41 315.5L1846.43 315.5M1801.41 360.5L1801.41 405.5M1801.41 360.5L1846.43 360.5M1801.41 405.5L1801.41 450.5M1801.41 405.5L1846.43 405.5M1801.41 450.5L1801.41 495.5M1801.41 450.5L1846.43 450.5M1801.41 495.5L1801.41 540.5M1801.41 495.5L1846.43 495.5M1801.41 540.5L1801.41 585.5M1801.41 540.5L1846.43 540.5M1801.41 585.5L1801.41 630.5M1801.41 585.5L1846.43 585.5M1801.41 630.5L1801.41 675.5M1801.41 630.5L1846.43 630.5M1801.41 675.5L1801.41 720.5M1801.41 675.5L1846.43 675.5M1801.41 720.5L1801.41 765.5M1801.41 720.5L1846.43 720.5M1801.41 765.5L1801.41 810.5M1801.41 765.5L1846.43 765.5M1801.41 810.5L1801.41 855.5M1801.41 810.5L1846.43 810.5M1801.41 855.5L1801.41 900.5M1801.41 855.5L1846.43 855.5M1801.41 900.5L1846.43 900.5M1846.43 0.500323L1846.43 45.5003M1846.43 0.500323L1891.45 0.500331M1846.43 45.5003L1846.43 90.5003M1846.43 45.5003L1891.45 45.5003M1846.43 90.5003L1846.43 135.5M1846.43 90.5003L1891.45 90.5003M1846.43 135.5L1846.43 180.5M1846.43 135.5L1891.45 135.5M1846.43 180.5L1846.43 225.5M1846.43 180.5L1891.45 180.5M1846.43 225.5L1846.43 270.5M1846.43 225.5L1891.45 225.5M1846.43 270.5L1846.43 315.5M1846.43 270.5L1891.45 270.5M1846.43 315.5L1846.43 360.5M1846.43 315.5L1891.45 315.5M1846.43 360.5L1846.43 405.5M1846.43 360.5L1891.45 360.5M1846.43 405.5L1846.43 450.5M1846.43 405.5L1891.45 405.5M1846.43 450.5L1846.43 495.5M1846.43 450.5L1891.45 450.5M1846.43 495.5L1846.43 540.5M1846.43 495.5L1891.45 495.5M1846.43 540.5L1846.43 585.5M1846.43 540.5L1891.45 540.5M1846.43 585.5L1846.43 630.5M1846.43 585.5L1891.45 585.5M1846.43 630.5L1846.43 675.5M1846.43 630.5L1891.45 630.5M1846.43 675.5L1846.43 720.5M1846.43 675.5L1891.45 675.5M1846.43 720.5L1846.43 765.5M1846.43 720.5L1891.45 720.5M1846.43 765.5L1846.43 810.5M1846.43 765.5L1891.45 765.5M1846.43 810.5L1846.43 855.5M1846.43 810.5L1891.45 810.5M1846.43 855.5L1846.43 900.5M1846.43 855.5L1891.45 855.5M1846.43 900.5L1891.45 900.5M1891.45 0.500331L1891.45 45.5003M1891.45 0.500331L1936.48 0.500338M1891.45 45.5003L1891.45 90.5003M1891.45 45.5003L1936.48 45.5003M1891.45 90.5003L1891.45 135.5M1891.45 90.5003L1936.48 90.5003M1891.45 135.5L1891.45 180.5M1891.45 135.5L1936.48 135.5M1891.45 180.5L1891.45 225.5M1891.45 180.5L1936.48 180.5M1891.45 225.5L1891.45 270.5M1891.45 225.5L1936.48 225.5M1891.45 270.5L1891.45 315.5M1891.45 270.5L1936.48 270.5M1891.45 315.5L1891.45 360.5M1891.45 315.5L1936.48 315.5M1891.45 360.5L1891.45 405.5M1891.45 360.5L1936.48 360.5M1891.45 405.5L1891.45 450.5M1891.45 405.5L1936.48 405.5M1891.45 450.5L1891.45 495.5M1891.45 450.5L1936.48 450.5M1891.45 495.5L1891.45 540.5M1891.45 495.5L1936.48 495.5M1891.45 540.5L1891.45 585.5M1891.45 540.5L1936.48 540.5M1891.45 585.5L1891.45 630.5M1891.45 585.5L1936.48 585.5M1891.45 630.5L1891.45 675.5M1891.45 630.5L1936.48 630.5M1891.45 675.5L1891.45 720.5M1891.45 675.5L1936.48 675.5M1891.45 720.5L1891.45 765.5M1891.45 720.5L1936.48 720.5M1891.45 765.5L1891.45 810.5M1891.45 765.5L1936.48 765.5M1891.45 810.5L1891.45 855.5M1891.45 810.5L1936.48 810.5M1891.45 855.5L1891.45 900.5M1891.45 855.5L1936.48 855.5M1891.45 900.5L1936.48 900.5M1936.48 0.500338L1936.48 45.5003M1936.48 0.500338L1981.5 0.500346L1981.5 45.5003M1936.48 45.5003L1936.48 90.5003M1936.48 45.5003L1981.5 45.5003M1936.48 90.5003L1936.48 135.5M1936.48 90.5003L1981.5 90.5003M1936.48 135.5L1936.48 180.5M1936.48 135.5L1981.5 135.5M1936.48 180.5L1936.48 225.5M1936.48 180.5L1981.5 180.5M1936.48 225.5L1936.48 270.5M1936.48 225.5L1981.5 225.5M1936.48 270.5L1936.48 315.5M1936.48 270.5L1981.5 270.5M1936.48 315.5L1936.48 360.5M1936.48 315.5L1981.5 315.5M1936.48 360.5L1936.48 405.5M1936.48 360.5L1981.5 360.5M1936.48 405.5L1936.48 450.5M1936.48 405.5L1981.5 405.5M1936.48 450.5L1936.48 495.5M1936.48 450.5L1981.5 450.5M1936.48 495.5L1936.48 540.5M1936.48 495.5L1981.5 495.5M1936.48 540.5L1936.48 585.5M1936.48 540.5L1981.5 540.5M1936.48 585.5L1936.48 630.5M1936.48 585.5L1981.5 585.5M1936.48 630.5L1936.48 675.5M1936.48 630.5L1981.5 630.5M1936.48 675.5L1936.48 720.5M1936.48 675.5L1981.5 675.5M1936.48 720.5L1936.48 765.5M1936.48 720.5L1981.5 720.5M1936.48 765.5L1936.48 810.5M1936.48 765.5L1981.5 765.5M1936.48 810.5L1936.48 855.5M1936.48 810.5L1981.5 810.5M1936.48 855.5L1936.48 900.5M1936.48 855.5L1981.5 855.5M1936.48 900.5L1981.5 900.5L1981.5 855.5M1981.5 45.5003L1981.5 90.5003M1981.5 90.5003L1981.5 135.5M1981.5 135.5L1981.5 180.5M1981.5 180.5L1981.5 225.5M1981.5 225.5L1981.5 270.5M1981.5 270.5L1981.5 315.5M1981.5 315.5L1981.5 360.5M1981.5 360.5L1981.5 405.5M1981.5 405.5L1981.5 450.5M1981.5 450.5L1981.5 495.5M1981.5 495.5L1981.5 540.5M1981.5 540.5L1981.5 585.5M1981.5 585.5L1981.5 630.5M1981.5 630.5L1981.5 675.5M1981.5 675.5L1981.5 720.5M1981.5 720.5L1981.5 765.5M1981.5 765.5L1981.5 810.5M1981.5 810.5L1981.5 855.5" stroke="black" stroke-opacity="0.1"/>
</svg>
